<?xml version="1.0" encoding="utf-8" ?>
<!DOCTYPE svg PUBLIC "-//W3C//DTD SVG 1.1//EN" "http://www.w3.org/Graphics/SVG/1.1/DTD/svg11.dtd">
<svg height="1460" version="1.1" width="1544" xmlns="http://www.w3.org/2000/svg">
<rect fill="#ffffff" height="357" stroke="#ffffff" stroke-width="1" width="352" x="14" y="240"/>
<rect fill="none" height="357" stroke="#000000" stroke-width="1" width="352" x="14" y="240"/>
<text font-family="Dialog" font-size="12" x="140" y="253">
flora::taxa::Taxa</text>
<rect fill="#000000" height="1" stroke="#000000" stroke-width="1" width="352" x="14" y="263"/>
<rect fill="#000000" height="1" stroke="#000000" stroke-width="1" width="352" x="14" y="284"/>
<text font-family="Dialog" font-size="12" x="18" y="298">
__construct(db : unknown) : void</text>
<text font-family="Dialog" font-size="12" x="18" y="314">
loadFromId(id : unknown) : void</text>
<text font-family="Dialog" font-size="12" x="18" y="330">
loadRoot() : void</text>
<text font-family="Dialog" font-size="12" x="18" y="346">
insert() : void</text>
<text font-family="Dialog" font-size="12" x="18" y="362">
update() : void</text>
<text font-family="Dialog" font-size="12" x="18" y="378">
delete() : void</text>
<text font-family="Dialog" font-size="12" x="18" y="394">
getRegionColl() : unknown</text>
<text font-family="Dialog" font-size="12" x="18" y="410">
setRegions(regions) : void</text>
<text font-family="Dialog" font-size="12" x="18" y="426">
getTaxaKind() : unknown</text>
<text font-family="Dialog" font-size="12" x="18" y="442">
addTaxaAttribute(name : string,value : string) : void</text>
<text font-family="Dialog" font-size="12" x="18" y="458">
addTaxaAttributeById(id : unknown,value : string) : void</text>
<text font-family="Dialog" font-size="12" x="18" y="474">
getAttributeById(id : unknown) : string</text>
<text font-family="Dialog" font-size="12" x="18" y="490">
deleteAllTaxaAttributes() : void</text>
<text font-family="Dialog" font-size="12" x="18" y="506">
deleteTaxaAttributeById(id : unknown) : void</text>
<text font-family="Dialog" font-size="12" x="18" y="522">
getTaxaImgeColl() : unknown</text>
<text font-family="Dialog" font-size="12" x="18" y="538">
getTaxaAttributeColl() : unknown</text>
<text font-family="Dialog" font-size="12" x="18" y="554">
getParentColl() : unknown</text>
<text font-family="Dialog" font-size="12" x="18" y="570">
getDicoItemColl(edit : unknown) : unknown</text>
<text font-family="Dialog" font-size="12" x="18" y="586">
updateSearch()</text>
<rect fill="#ffffff" height="118" stroke="#ffffff" stroke-width="1" width="369" x="446" y="240"/>
<rect fill="none" height="118" stroke="#000000" stroke-width="1" width="369" x="446" y="240"/>
<text font-family="Dialog" font-size="12" x="542" y="253">
flora::taxa::TaxaAttributeColl</text>
<rect fill="#000000" height="1" stroke="#000000" stroke-width="1" width="369" x="446" y="263"/>
<rect fill="#000000" height="1" stroke="#000000" stroke-width="1" width="369" x="446" y="284"/>
<text font-family="Dialog" font-size="12" x="450" y="298">
__construct(db : unknown) : void</text>
<text font-family="Dialog" font-size="12" x="450" y="314">
customSelect(select : unknown,criteria) : unknown</text>
<text font-family="Dialog" font-size="12" x="450" y="330">
countAll(criteria : unknown) : unknown</text>
<text font-family="Dialog" font-size="12" x="450" y="346">
setFilter(select : unknown,criteria) : unknown</text>
<rect fill="#ffffff" height="182" stroke="#ffffff" stroke-width="1" width="335" x="926" y="232"/>
<rect fill="none" height="182" stroke="#000000" stroke-width="1" width="335" x="926" y="232"/>
<text font-family="Dialog" font-size="12" x="1016" y="245">
flora::taxa::TaxaAttribute</text>
<rect fill="#000000" height="1" stroke="#000000" stroke-width="1" width="335" x="926" y="255"/>
<rect fill="#000000" height="1" stroke="#000000" stroke-width="1" width="335" x="926" y="276"/>
<text font-family="Dialog" font-size="12" x="930" y="290">
__construct(db : unknown) : void</text>
<text font-family="Dialog" font-size="12" x="930" y="306">
loadFromName(name : string) : void</text>
<text font-family="Dialog" font-size="12" x="930" y="322">
getAllValues(criteria)</text>
<text font-family="Dialog" font-size="12" x="930" y="338">
countAllValues(criteria) : unknown</text>
<text font-family="Dialog" font-size="12" x="930" y="354">
setFilter(criteria) : string</text>
<text font-family="Dialog" font-size="12" x="930" y="370">
deleteValue(value : string) : void</text>
<text font-family="Dialog" font-size="12" x="930" y="386">
replaceValue(oldValue : string,value : string) : string</text>
<text font-family="Dialog" font-size="12" x="930" y="402">
getValues(request) : unknown</text>
<polyline fill="none" points="365,357 446,357" stroke="#000000" stroke-width="1"/>
<polygon fill="#000000" points="365,357 375,352 385,357 375,362" stroke="#000000" stroke-width="1"/>
<polygon fill="none" points="365,357 375,352 385,357 375,362" stroke="#000000" stroke-width="1"/>
<line fill="#000000" stroke="#000000" stroke-width="1" x1="434" x2="446" y1="364" y2="357"/>
<line fill="#000000" stroke="#000000" stroke-width="1" x1="434" x2="446" y1="350" y2="357"/>
<polyline fill="none" points="814,357 926,357" stroke="#000000" stroke-width="1"/>
<polygon fill="#ffffff" points="814,357 824,352 834,357 824,362" stroke="#ffffff" stroke-width="1"/>
<polygon fill="none" points="814,357 824,352 834,357 824,362" stroke="#000000" stroke-width="1"/>
<line fill="#000000" stroke="#000000" stroke-width="1" x1="914" x2="926" y1="364" y2="357"/>
<line fill="#000000" stroke="#000000" stroke-width="1" x1="914" x2="926" y1="350" y2="357"/>
<text font-family="Dialog" font-size="12" x="826" y="337">
TaxaAttribute</text>
<text font-family="Dialog" font-size="12" x="825" y="352">
1</text>
<text font-family="Dialog" font-size="12" x="900" y="352">
1..*</text>
<rect fill="#ffffff" height="105" stroke="#ffffff" stroke-width="1" width="325" x="446" y="440"/>
<rect fill="none" height="105" stroke="#000000" stroke-width="1" width="325" x="446" y="440"/>
<text font-family="Dialog" font-size="12" x="528" y="453">
flora::taxa::TaxaImageColl</text>
<rect fill="#000000" height="1" stroke="#000000" stroke-width="1" width="325" x="446" y="463"/>
<text font-family="Dialog" font-size="12" x="450" y="477">
taxa_id : unknown</text>
<rect fill="#000000" height="1" stroke="#000000" stroke-width="1" width="325" x="446" y="487"/>
<text font-family="Dialog" font-size="12" x="450" y="501">
__construct(db : unknown) : void</text>
<text font-family="Dialog" font-size="12" x="450" y="517">
customSelect(select : unknown,criteria) : unknown</text>
<text font-family="Dialog" font-size="12" x="450" y="533">
addItem(key : unknown) : unknown</text>
<polyline fill="none" points="365,544 446,544" stroke="#000000" stroke-width="1"/>
<polygon fill="#000000" points="365,544 375,539 385,544 375,549" stroke="#000000" stroke-width="1"/>
<polygon fill="none" points="365,544 375,539 385,544 375,549" stroke="#000000" stroke-width="1"/>
<line fill="#000000" stroke="#000000" stroke-width="1" x1="434" x2="446" y1="551" y2="544"/>
<line fill="#000000" stroke="#000000" stroke-width="1" x1="434" x2="446" y1="537" y2="544"/>
<rect fill="#ffffff" height="198" stroke="#ffffff" stroke-width="1" width="245" x="926" y="432"/>
<rect fill="none" height="198" stroke="#000000" stroke-width="1" width="245" x="926" y="432"/>
<text font-family="Dialog" font-size="12" x="979" y="445">
flora::taxa::TaxaImage</text>
<rect fill="#000000" height="1" stroke="#000000" stroke-width="1" width="245" x="926" y="455"/>
<rect fill="#000000" height="1" stroke="#000000" stroke-width="1" width="245" x="926" y="476"/>
<text font-family="Dialog" font-size="12" x="930" y="490">
__construct(db : unknown) : void</text>
<text font-family="Dialog" font-size="12" x="930" y="506">
insert() : void</text>
<text font-family="Dialog" font-size="12" x="930" y="522">
update() : void</text>
<text font-family="Dialog" font-size="12" x="930" y="538">
moveInsert(inputFile : unknown) : void</text>
<text font-family="Dialog" font-size="12" x="930" y="554">
getUrl() : string</text>
<text font-family="Dialog" font-size="12" x="930" y="570">
getPath() : string</text>
<text font-family="Dialog" font-size="12" x="930" y="586">
getBaseFileName() : string</text>
<text font-family="Dialog" font-size="12" x="930" y="602">
moveFile(inputFile : string) : string</text>
<text font-family="Dialog" font-size="12" x="930" y="618">
delete() : void</text>
<polyline fill="none" points="770,544 926,544" stroke="#000000" stroke-width="1"/>
<polygon fill="#ffffff" points="770,544 780,539 790,544 780,549" stroke="#ffffff" stroke-width="1"/>
<polygon fill="none" points="770,544 780,539 790,544 780,549" stroke="#000000" stroke-width="1"/>
<line fill="#000000" stroke="#000000" stroke-width="1" x1="914" x2="926" y1="551" y2="544"/>
<line fill="#000000" stroke="#000000" stroke-width="1" x1="914" x2="926" y1="537" y2="544"/>
<text font-family="Dialog" font-size="12" x="804" y="524">
TaxaImage</text>
<text font-family="Dialog" font-size="12" x="781" y="539">
1</text>
<text font-family="Dialog" font-size="12" x="900" y="539">
1..*</text>
<rect fill="#ffffff" height="70" stroke="#ffffff" stroke-width="1" width="211" x="446" y="584"/>
<rect fill="none" height="70" stroke="#000000" stroke-width="1" width="211" x="446" y="584"/>
<text font-family="Dialog" font-size="12" x="488" y="597">
flora::taxa::TaxaKind</text>
<rect fill="#000000" height="1" stroke="#000000" stroke-width="1" width="211" x="446" y="607"/>
<rect fill="#000000" height="1" stroke="#000000" stroke-width="1" width="211" x="446" y="628"/>
<text font-family="Dialog" font-size="12" x="450" y="642">
__construct(db : unknown) : void</text>
<rect fill="#ffffff" height="134" stroke="#ffffff" stroke-width="1" width="325" x="830" y="640"/>
<rect fill="none" height="134" stroke="#000000" stroke-width="1" width="325" x="830" y="640"/>
<text font-family="Dialog" font-size="12" x="918" y="653">
flora::taxa::TaxaKindColl</text>
<rect fill="#000000" height="1" stroke="#000000" stroke-width="1" width="325" x="830" y="663"/>
<rect fill="#000000" height="1" stroke="#000000" stroke-width="1" width="325" x="830" y="684"/>
<text font-family="Dialog" font-size="12" x="834" y="698">
__construct(db : unknown) : void</text>
<text font-family="Dialog" font-size="12" x="834" y="714">
loadAll(criteria) : void</text>
<text font-family="Dialog" font-size="12" x="834" y="730">
customSelect(select : unknown,criteria) : unknown</text>
<text font-family="Dialog" font-size="12" x="834" y="746">
countAll(criteria : unknown) : unknown</text>
<text font-family="Dialog" font-size="12" x="834" y="762">
setFilter(select : unknown,criteria) : unknown</text>
<polyline fill="none" points="365,584 446,584" stroke="#000000" stroke-width="1"/>
<polygon fill="#000000" points="365,584 375,579 385,584 375,589" stroke="#000000" stroke-width="1"/>
<polygon fill="none" points="365,584 375,579 385,584 375,589" stroke="#000000" stroke-width="1"/>
<line fill="#000000" stroke="#000000" stroke-width="1" x1="434" x2="446" y1="591" y2="584"/>
<line fill="#000000" stroke="#000000" stroke-width="1" x1="434" x2="446" y1="577" y2="584"/>
<polyline fill="none" points="830,653 656,653" stroke="#000000" stroke-width="1"/>
<polygon fill="#ffffff" points="830,653 820,658 810,653 820,648" stroke="#ffffff" stroke-width="1"/>
<polygon fill="none" points="830,653 820,658 810,653 820,648" stroke="#000000" stroke-width="1"/>
<line fill="#000000" stroke="#000000" stroke-width="1" x1="668" x2="656" y1="646" y2="653"/>
<line fill="#000000" stroke="#000000" stroke-width="1" x1="668" x2="656" y1="660" y2="653"/>
<text font-family="Dialog" font-size="12" x="699" y="633">
TaxaKind</text>
<text font-family="Dialog" font-size="12" x="811" y="648">
1</text>
<text font-family="Dialog" font-size="12" x="660" y="648">
1..*</text>
<rect fill="#ffffff" height="134" stroke="#ffffff" stroke-width="1" width="325" x="294" y="672"/>
<rect fill="none" height="134" stroke="#000000" stroke-width="1" width="325" x="294" y="672"/>
<text font-family="Dialog" font-size="12" x="382" y="685">
flora::region::RegionColl</text>
<rect fill="#000000" height="1" stroke="#000000" stroke-width="1" width="325" x="294" y="695"/>
<rect fill="#000000" height="1" stroke="#000000" stroke-width="1" width="325" x="294" y="716"/>
<text font-family="Dialog" font-size="12" x="298" y="730">
__construct(db : unknown) : void</text>
<text font-family="Dialog" font-size="12" x="298" y="746">
loadAll(criteria) : void</text>
<text font-family="Dialog" font-size="12" x="298" y="762">
customSelect(select : unknown,criteria) : unknown</text>
<text font-family="Dialog" font-size="12" x="298" y="778">
countAll(criteria : unknown) : unknown</text>
<text font-family="Dialog" font-size="12" x="298" y="794">
setFilter(select : unknown,criteria) : unknown</text>
<rect fill="#ffffff" height="70" stroke="#ffffff" stroke-width="1" width="211" x="734" y="800"/>
<rect fill="none" height="70" stroke="#000000" stroke-width="1" width="211" x="734" y="800"/>
<text font-family="Dialog" font-size="12" x="776" y="813">
flora::region::Region</text>
<rect fill="#000000" height="1" stroke="#000000" stroke-width="1" width="211" x="734" y="823"/>
<rect fill="#000000" height="1" stroke="#000000" stroke-width="1" width="211" x="734" y="844"/>
<text font-family="Dialog" font-size="12" x="738" y="858">
__construct(db : unknown) : void</text>
<polyline fill="none" points="294,596 294,672" stroke="#000000" stroke-width="1"/>
<polygon fill="#000000" points="294,596 299,606 294,616 289,606" stroke="#000000" stroke-width="1"/>
<polygon fill="none" points="294,596 299,606 294,616 289,606" stroke="#000000" stroke-width="1"/>
<line fill="#000000" stroke="#000000" stroke-width="1" x1="287" x2="294" y1="660" y2="672"/>
<line fill="#000000" stroke="#000000" stroke-width="1" x1="301" x2="294" y1="660" y2="672"/>
<polyline fill="none" points="618,805 734,805" stroke="#000000" stroke-width="1"/>
<polygon fill="#ffffff" points="618,805 628,800 638,805 628,810" stroke="#ffffff" stroke-width="1"/>
<polygon fill="none" points="618,805 628,800 638,805 628,810" stroke="#000000" stroke-width="1"/>
<line fill="#000000" stroke="#000000" stroke-width="1" x1="722" x2="734" y1="812" y2="805"/>
<line fill="#000000" stroke="#000000" stroke-width="1" x1="722" x2="734" y1="798" y2="805"/>
<text font-family="Dialog" font-size="12" x="632" y="785">
Region</text>
<text font-family="Dialog" font-size="12" x="629" y="800">
1</text>
<text font-family="Dialog" font-size="12" x="708" y="800">
1..*</text>
<rect fill="#ffffff" height="182" stroke="#ffffff" stroke-width="1" width="377" x="86" y="824"/>
<rect fill="none" height="182" stroke="#000000" stroke-width="1" width="377" x="86" y="824"/>
<text font-family="Dialog" font-size="12" x="201" y="837">
flora::dico::DicoItemColl</text>
<rect fill="#000000" height="1" stroke="#000000" stroke-width="1" width="377" x="86" y="847"/>
<rect fill="#000000" height="1" stroke="#000000" stroke-width="1" width="377" x="86" y="868"/>
<text font-family="Dialog" font-size="12" x="90" y="882">
__construct(db : unknown) : void</text>
<text font-family="Dialog" font-size="12" x="90" y="898">
customSelect(select : unknown,criteria) : unknown</text>
<line fill="#000000" stroke="#000000" stroke-width="1" x1="90" x2="396" y1="915" y2="915"/>
<text font-family="Dialog" font-size="12" x="90" y="914">
customSort(a : unknown,b : unknown) : unknown</text>
<text font-family="Dialog" font-size="12" x="90" y="930">
export(format : string,stream : resource) : void</text>
<text font-family="Dialog" font-size="12" x="90" y="946">
import(format : unknown,stream : unknown) : void</text>
<text font-family="Dialog" font-size="12" x="90" y="962">
importAndSave(format : unknown,stream : unknown) : void</text>
<text font-family="Dialog" font-size="12" x="90" y="978">
filterByAttributeValue(value : mixed,field : mixed) : unknown</text>
<text font-family="Dialog" font-size="12" x="90" y="994">
emptyDicoItems() : void</text>
<polyline fill="none" points="174,596 174,824" stroke="#000000" stroke-width="1"/>
<polygon fill="#000000" points="174,596 179,606 174,616 169,606" stroke="#000000" stroke-width="1"/>
<polygon fill="none" points="174,596 179,606 174,616 169,606" stroke="#000000" stroke-width="1"/>
<line fill="#000000" stroke="#000000" stroke-width="1" x1="167" x2="174" y1="812" y2="824"/>
<line fill="#000000" stroke="#000000" stroke-width="1" x1="181" x2="174" y1="812" y2="824"/>
<rect fill="#ffffff" height="230" stroke="#ffffff" stroke-width="1" width="420" x="86" y="1064"/>
<rect fill="none" height="230" stroke="#000000" stroke-width="1" width="420" x="86" y="1064"/>
<text font-family="Dialog" font-size="12" x="230" y="1077">
flora::dico::DicoItem--</text>
<rect fill="#000000" height="1" stroke="#000000" stroke-width="1" width="420" x="86" y="1087"/>
<rect fill="#000000" height="1" stroke="#000000" stroke-width="1" width="420" x="86" y="1108"/>
<text font-family="Dialog" font-size="12" x="90" y="1122">
__construct(db : unknown) : void</text>
<text font-family="Dialog" font-size="12" x="90" y="1138">
loadFromId(id : unknown) : void</text>
<text font-family="Dialog" font-size="12" x="90" y="1154">
loadFromIdAndTaxa(parent_taxa_id : unknown,id : unknown) : void</text>
<text font-family="Dialog" font-size="12" x="90" y="1170">
update() : void</text>
<text font-family="Dialog" font-size="12" x="90" y="1186">
insert() : void</text>
<text font-family="Dialog" font-size="12" x="90" y="1202">
replace() : void</text>
<text font-family="Dialog" font-size="12" x="90" y="1218">
delete() : void</text>
<text font-family="Dialog" font-size="12" x="90" y="1234">
getSiblingCode() : string</text>
<text font-family="Dialog" font-size="12" x="90" y="1250">
getChildrenCodeArray()</text>
<text font-family="Dialog" font-size="12" x="90" y="1266">
getTaxa() : unknown</text>
<text font-family="Dialog" font-size="12" x="90" y="1282">
removesTaxaAssociation() : void</text>
<polyline fill="none" points="302,1005 302,1064" stroke="#000000" stroke-width="1"/>
<polygon fill="#ffffff" points="302,1005 307,1015 302,1025 297,1015" stroke="#ffffff" stroke-width="1"/>
<polygon fill="none" points="302,1005 307,1015 302,1025 297,1015" stroke="#000000" stroke-width="1"/>
<line fill="#000000" stroke="#000000" stroke-width="1" x1="295" x2="302" y1="1052" y2="1064"/>
<line fill="#000000" stroke="#000000" stroke-width="1" x1="309" x2="302" y1="1052" y2="1064"/>
<text font-family="Dialog" font-size="12" x="315" y="1032">
1</text>
<text font-family="Dialog" font-size="12" x="308" y="1047">
1..*</text>
<rect fill="#ffffff" height="67" stroke="#ffffff" stroke-width="1" width="356" x="590" y="1072"/>
<rect fill="none" height="67" stroke="#000000" stroke-width="1" width="356" x="590" y="1072"/>
<text font-family="Dialog" font-size="12" x="689" y="1104">
flora::dico::import::Import</text>
<text font-family="Dialog" font-size="12" x="720" y="1086">
&lt;&lt;interface&gt;&gt;</text>
<rect fill="#000000" height="1" stroke="#000000" stroke-width="1" width="356" x="590" y="1114"/>
<text font-family="Dialog" font-size="12" font-style="italic" x="594" y="1128">
import(dicoItemColl : unknown,stream : unknown) : void</text>
<rect fill="#ffffff" height="67" stroke="#ffffff" stroke-width="1" width="357" x="590" y="936"/>
<rect fill="none" height="67" stroke="#000000" stroke-width="1" width="357" x="590" y="936"/>
<text font-family="Dialog" font-size="12" x="689" y="968">
flora::dico::export::Export</text>
<text font-family="Dialog" font-size="12" x="720" y="950">
&lt;&lt;interface&gt;&gt;</text>
<rect fill="#000000" height="1" stroke="#000000" stroke-width="1" width="357" x="590" y="978"/>
<text font-family="Dialog" font-size="12" font-style="italic" x="594" y="992">
export(dicoItemColl : unknown,stream : unknown) : void</text>
<polyline fill="none" points="462,1002 590,1002" stroke="#000000" stroke-width="1"/>
<polygon fill="#000000" points="462,1002 472,997 482,1002 472,1007" stroke="#000000" stroke-width="1"/>
<polygon fill="none" points="462,1002 472,997 482,1002 472,1007" stroke="#000000" stroke-width="1"/>
<line fill="#000000" stroke="#000000" stroke-width="1" x1="578" x2="590" y1="1009" y2="1002"/>
<line fill="#000000" stroke="#000000" stroke-width="1" x1="578" x2="590" y1="995" y2="1002"/>
<polyline fill="none" points="462,1005 590,1072" stroke="#000000" stroke-width="1"/>
<polygon fill="#000000" points="462,1005 473,1005 479,1014 468,1014" stroke="#000000" stroke-width="1"/>
<polygon fill="none" points="462,1005 473,1005 479,1014 468,1014" stroke="#000000" stroke-width="1"/>
<line fill="#000000" stroke="#000000" stroke-width="1" x1="576" x2="590" y1="1072" y2="1072"/>
<line fill="#000000" stroke="#000000" stroke-width="1" x1="582" x2="590" y1="1060" y2="1072"/>
<rect fill="#ffffff" height="70" stroke="#ffffff" stroke-width="1" width="354" x="1062" y="896"/>
<rect fill="none" height="70" stroke="#000000" stroke-width="1" width="354" x="1062" y="896"/>
<text font-family="Dialog" font-size="12" x="1156" y="909">
flora::dico::export::Internal</text>
<rect fill="#000000" height="1" stroke="#000000" stroke-width="1" width="354" x="1062" y="919"/>
<rect fill="#000000" height="1" stroke="#000000" stroke-width="1" width="354" x="1062" y="940"/>
<text font-family="Dialog" font-size="12" x="1066" y="954">
export(dicoItemColl : unknown,stream : unknown) : void</text>
<rect fill="#ffffff" height="89" stroke="#ffffff" stroke-width="1" width="354" x="1062" y="992"/>
<rect fill="none" height="89" stroke="#000000" stroke-width="1" width="354" x="1062" y="992"/>
<text font-family="Dialog" font-size="12" x="1156" y="1005">
flora::dico::export::Pignatti</text>
<rect fill="#000000" height="1" stroke="#000000" stroke-width="1" width="354" x="1062" y="1015"/>
<text font-family="Dialog" font-size="12" x="1066" y="1029">
positions</text>
<text font-family="Dialog" font-size="12" x="1066" y="1045">
lastPosition : unknown</text>
<rect fill="#000000" height="1" stroke="#000000" stroke-width="1" width="354" x="1062" y="1055"/>
<text font-family="Dialog" font-size="12" x="1066" y="1069">
export(dicoItemColl : unknown,stream : unknown) : void</text>
<line fill="#000000" stroke="#000000" stroke-width="1" x1="1062" x2="1057" y1="965" y2="965"/>
<line fill="#000000" stroke="#000000" stroke-width="1" x1="1052" x2="1047" y1="965" y2="965"/>
<line fill="#000000" stroke="#000000" stroke-width="1" x1="1042" x2="1037" y1="965" y2="965"/>
<line fill="#000000" stroke="#000000" stroke-width="1" x1="1032" x2="1027" y1="965" y2="965"/>
<line fill="#000000" stroke="#000000" stroke-width="1" x1="1022" x2="1017" y1="965" y2="965"/>
<line fill="#000000" stroke="#000000" stroke-width="1" x1="1012" x2="1007" y1="965" y2="965"/>
<line fill="#000000" stroke="#000000" stroke-width="1" x1="1002" x2="997" y1="965" y2="965"/>
<line fill="#000000" stroke="#000000" stroke-width="1" x1="992" x2="987" y1="965" y2="965"/>
<line fill="#000000" stroke="#000000" stroke-width="1" x1="982" x2="977" y1="965" y2="965"/>
<line fill="#000000" stroke="#000000" stroke-width="1" x1="972" x2="967" y1="965" y2="965"/>
<line fill="#000000" stroke="#000000" stroke-width="1" x1="962" x2="957" y1="965" y2="965"/>
<line fill="#000000" stroke="#000000" stroke-width="1" x1="952" x2="947" y1="965" y2="965"/>
<polygon fill="#ffffff" points="946,965 958,958 958,972" stroke="#ffffff" stroke-width="1"/>
<polygon fill="none" points="946,965 958,958 958,972" stroke="#000000" stroke-width="1"/>
<text font-family="Dialog" font-size="12" x="960" y="935">
Internal</text>
<text font-family="Dialog" font-size="12" x="964" y="952">
&lt;&lt;realize&gt;&gt;</text>
<line fill="#000000" stroke="#000000" stroke-width="1" x1="1062" x2="1057" y1="1002" y2="1002"/>
<line fill="#000000" stroke="#000000" stroke-width="1" x1="1052" x2="1047" y1="1002" y2="1002"/>
<line fill="#000000" stroke="#000000" stroke-width="1" x1="1042" x2="1037" y1="1002" y2="1002"/>
<line fill="#000000" stroke="#000000" stroke-width="1" x1="1032" x2="1027" y1="1002" y2="1002"/>
<line fill="#000000" stroke="#000000" stroke-width="1" x1="1022" x2="1017" y1="1002" y2="1002"/>
<line fill="#000000" stroke="#000000" stroke-width="1" x1="1012" x2="1007" y1="1002" y2="1002"/>
<line fill="#000000" stroke="#000000" stroke-width="1" x1="1002" x2="997" y1="1002" y2="1002"/>
<line fill="#000000" stroke="#000000" stroke-width="1" x1="992" x2="987" y1="1002" y2="1002"/>
<line fill="#000000" stroke="#000000" stroke-width="1" x1="982" x2="977" y1="1002" y2="1002"/>
<line fill="#000000" stroke="#000000" stroke-width="1" x1="972" x2="967" y1="1002" y2="1002"/>
<line fill="#000000" stroke="#000000" stroke-width="1" x1="962" x2="957" y1="1002" y2="1002"/>
<line fill="#000000" stroke="#000000" stroke-width="1" x1="952" x2="947" y1="1002" y2="1002"/>
<polygon fill="#ffffff" points="946,1002 958,995 958,1009" stroke="#ffffff" stroke-width="1"/>
<polygon fill="none" points="946,1002 958,995 958,1009" stroke="#000000" stroke-width="1"/>
<text font-family="Dialog" font-size="12" x="960" y="972">
Pignatti</text>
<text font-family="Dialog" font-size="12" x="964" y="989">
&lt;&lt;realize&gt;&gt;</text>
<rect fill="#ffffff" height="70" stroke="#ffffff" stroke-width="1" width="354" x="590" y="1256"/>
<rect fill="none" height="70" stroke="#000000" stroke-width="1" width="354" x="590" y="1256"/>
<text font-family="Dialog" font-size="12" x="684" y="1269">
flora::dico::import::Internal</text>
<rect fill="#000000" height="1" stroke="#000000" stroke-width="1" width="354" x="590" y="1279"/>
<rect fill="#000000" height="1" stroke="#000000" stroke-width="1" width="354" x="590" y="1300"/>
<text font-family="Dialog" font-size="12" x="594" y="1314">
import(dicoItemColl : unknown,stream : unknown) : void</text>
<rect fill="#ffffff" height="70" stroke="#ffffff" stroke-width="1" width="354" x="1022" y="1256"/>
<rect fill="none" height="70" stroke="#000000" stroke-width="1" width="354" x="1022" y="1256"/>
<text font-family="Dialog" font-size="12" x="1116" y="1269">
flora::dico::import::Pignatti</text>
<rect fill="#000000" height="1" stroke="#000000" stroke-width="1" width="354" x="1022" y="1279"/>
<rect fill="#000000" height="1" stroke="#000000" stroke-width="1" width="354" x="1022" y="1300"/>
<text font-family="Dialog" font-size="12" x="1026" y="1314">
import(dicoItemColl : unknown,stream : unknown) : void</text>
<rect fill="#ffffff" height="70" stroke="#ffffff" stroke-width="1" width="508" x="1022" y="1376"/>
<rect fill="none" height="70" stroke="#000000" stroke-width="1" width="508" x="1022" y="1376"/>
<text font-family="Dialog" font-size="12" x="1157" y="1389">
flora::dico::import::pignatti_input_filter</text>
<rect fill="#000000" height="1" stroke="#000000" stroke-width="1" width="508" x="1022" y="1399"/>
<rect fill="#000000" height="1" stroke="#000000" stroke-width="1" width="508" x="1022" y="1420"/>
<text font-family="Dialog" font-size="12" x="1026" y="1434">
filter(in : unknown,out : unknown,consumed : unknown,closing : unknown) : void</text>
<line fill="#000000" stroke="#000000" stroke-width="1" x1="1102" x2="1102" y1="1376" y2="1371"/>
<line fill="#000000" stroke="#000000" stroke-width="1" x1="1102" x2="1102" y1="1366" y2="1361"/>
<line fill="#000000" stroke="#000000" stroke-width="1" x1="1102" x2="1102" y1="1356" y2="1351"/>
<line fill="#000000" stroke="#000000" stroke-width="1" x1="1102" x2="1102" y1="1346" y2="1341"/>
<line fill="#000000" stroke="#000000" stroke-width="1" x1="1102" x2="1102" y1="1336" y2="1331"/>
<line fill="#000000" stroke="#000000" stroke-width="1" x1="1102" x2="1102" y1="1326" y2="1325"/>
<line fill="#000000" stroke="#000000" stroke-width="1" x1="1109" x2="1102" y1="1337" y2="1325"/>
<line fill="#000000" stroke="#000000" stroke-width="1" x1="1095" x2="1102" y1="1337" y2="1325"/>
<line fill="#000000" stroke="#000000" stroke-width="1" x1="782" x2="782" y1="1256" y2="1251"/>
<line fill="#000000" stroke="#000000" stroke-width="1" x1="782" x2="782" y1="1246" y2="1241"/>
<line fill="#000000" stroke="#000000" stroke-width="1" x1="782" x2="782" y1="1236" y2="1231"/>
<line fill="#000000" stroke="#000000" stroke-width="1" x1="782" x2="782" y1="1226" y2="1221"/>
<line fill="#000000" stroke="#000000" stroke-width="1" x1="782" x2="782" y1="1216" y2="1211"/>
<line fill="#000000" stroke="#000000" stroke-width="1" x1="782" x2="782" y1="1206" y2="1201"/>
<line fill="#000000" stroke="#000000" stroke-width="1" x1="782" x2="782" y1="1196" y2="1191"/>
<line fill="#000000" stroke="#000000" stroke-width="1" x1="782" x2="782" y1="1186" y2="1181"/>
<line fill="#000000" stroke="#000000" stroke-width="1" x1="782" x2="782" y1="1176" y2="1171"/>
<line fill="#000000" stroke="#000000" stroke-width="1" x1="782" x2="782" y1="1166" y2="1161"/>
<line fill="#000000" stroke="#000000" stroke-width="1" x1="782" x2="782" y1="1156" y2="1151"/>
<line fill="#000000" stroke="#000000" stroke-width="1" x1="782" x2="782" y1="1146" y2="1141"/>
<polygon fill="#ffffff" points="782,1138 789,1150 775,1150" stroke="#ffffff" stroke-width="1"/>
<polygon fill="none" points="782,1138 789,1150 775,1150" stroke="#000000" stroke-width="1"/>
<text font-family="Dialog" font-size="12" x="691" y="1192">
Internal</text>
<text font-family="Dialog" font-size="12" x="695" y="1209">
&lt;&lt;realize&gt;&gt;</text>
<line fill="#000000" stroke="#000000" stroke-width="1" x1="1022" x2="1020" y1="1256" y2="1252"/>
<line fill="#000000" stroke="#000000" stroke-width="1" x1="1017" x2="1014" y1="1248" y2="1244"/>
<line fill="#000000" stroke="#000000" stroke-width="1" x1="1011" x2="1009" y1="1240" y2="1235"/>
<line fill="#000000" stroke="#000000" stroke-width="1" x1="1006" x2="1003" y1="1231" y2="1227"/>
<line fill="#000000" stroke="#000000" stroke-width="1" x1="1000" x2="998" y1="1223" y2="1219"/>
<line fill="#000000" stroke="#000000" stroke-width="1" x1="995" x2="992" y1="1214" y2="1210"/>
<line fill="#000000" stroke="#000000" stroke-width="1" x1="989" x2="987" y1="1206" y2="1202"/>
<line fill="#000000" stroke="#000000" stroke-width="1" x1="984" x2="981" y1="1197" y2="1193"/>
<line fill="#000000" stroke="#000000" stroke-width="1" x1="978" x2="976" y1="1189" y2="1185"/>
<line fill="#000000" stroke="#000000" stroke-width="1" x1="973" x2="970" y1="1181" y2="1176"/>
<line fill="#000000" stroke="#000000" stroke-width="1" x1="967" x2="965" y1="1172" y2="1168"/>
<line fill="#000000" stroke="#000000" stroke-width="1" x1="962" x2="959" y1="1164" y2="1160"/>
<line fill="#000000" stroke="#000000" stroke-width="1" x1="956" x2="954" y1="1155" y2="1151"/>
<line fill="#000000" stroke="#000000" stroke-width="1" x1="951" x2="948" y1="1147" y2="1143"/>
<polygon fill="#ffffff" points="945,1138 957,1144 945,1151" stroke="#ffffff" stroke-width="1"/>
<polygon fill="none" points="945,1138 957,1144 945,1151" stroke="#000000" stroke-width="1"/>
<text font-family="Dialog" font-size="12" x="980" y="1165">
Pignatti</text>
<text font-family="Dialog" font-size="12" x="984" y="1182">
&lt;&lt;realize&gt;&gt;</text>
<rect fill="#ffffff" height="134" stroke="#ffffff" stroke-width="1" width="325" x="14" y="30"/>
<rect fill="none" height="134" stroke="#000000" stroke-width="1" width="325" x="14" y="30"/>
<text font-family="Dialog" font-size="12" x="115" y="43">
flora::taxa::TaxaColl</text>
<rect fill="#000000" height="1" stroke="#000000" stroke-width="1" width="325" x="14" y="53"/>
<rect fill="#000000" height="1" stroke="#000000" stroke-width="1" width="325" x="14" y="74"/>
<text font-family="Dialog" font-size="12" x="18" y="88">
__construct(db : unknown) : void</text>
<text font-family="Dialog" font-size="12" x="18" y="104">
loadAll(criteria) : void</text>
<text font-family="Dialog" font-size="12" x="18" y="120">
customSelect(select : unknown,criteria) : unknown</text>
<text font-family="Dialog" font-size="12" x="18" y="136">
countAll(criteria : unknown) : unknown</text>
<text font-family="Dialog" font-size="12" x="18" y="152">
setFilter(select : unknown,criteria) : unknown</text>
<rect fill="#ffffff" height="89" stroke="#ffffff" stroke-width="1" width="130" x="454" y="38"/>
<rect fill="none" height="89" stroke="#000000" stroke-width="1" width="130" x="454" y="38"/>
<text font-family="Dialog" font-size="12" x="473" y="51">
flora::Autoload</text>
<rect fill="#000000" height="1" stroke="#000000" stroke-width="1" width="130" x="454" y="61"/>
<line fill="#000000" stroke="#000000" stroke-width="1" x1="458" x2="580" y1="76" y2="76"/>
<text font-family="Dialog" font-size="12" x="458" y="75">
instance : unknown</text>
<rect fill="#000000" height="1" stroke="#000000" stroke-width="1" width="130" x="454" y="85"/>
<text font-family="Dialog" font-size="12" x="458" y="99">
__construct() : void</text>
<line fill="#000000" stroke="#000000" stroke-width="1" x1="458" x2="580" y1="116" y2="116"/>
<text font-family="Dialog" font-size="12" x="458" y="115">
getInstance() : void</text>
<polyline fill="none" points="166,163 166,240" stroke="#000000" stroke-width="1"/>
<polygon fill="#ffffff" points="166,163 171,173 166,183 161,173" stroke="#ffffff" stroke-width="1"/>
<polygon fill="none" points="166,163 171,173 166,183 161,173" stroke="#000000" stroke-width="1"/>
<line fill="#000000" stroke="#000000" stroke-width="1" x1="159" x2="166" y1="228" y2="240"/>
<line fill="#000000" stroke="#000000" stroke-width="1" x1="173" x2="166" y1="228" y2="240"/>
<text font-family="Dialog" font-size="12" x="169" y="206">
Taxa</text>
<text font-family="Dialog" font-size="12" x="179" y="190">
1</text>
<text font-family="Dialog" font-size="12" x="172" y="223">
1..*</text>
<rect fill="#ffffff" height="185" stroke="#ffffff" stroke-width="1" width="183" x="638" y="14"/>
<rect fill="none" height="185" stroke="#000000" stroke-width="1" width="183" x="638" y="14"/>
<text font-family="Dialog" font-size="12" x="657" y="27">
flora::taxa::TaxaSearch</text>
<rect fill="#000000" height="1" stroke="#000000" stroke-width="1" width="183" x="638" y="37"/>
<text font-family="Dialog" font-size="12" x="642" y="51">
taxa : Taxa</text>
<rect fill="#000000" height="1" stroke="#000000" stroke-width="1" width="183" x="638" y="61"/>
<text font-family="Dialog" font-size="12" x="642" y="75">
__construct()</text>
<text font-family="Dialog" font-size="12" x="642" y="91">
loadFromTaxa(taxa : Taxa)</text>
<text font-family="Dialog" font-size="12" x="642" y="107">
update()</text>
<text font-family="Dialog" font-size="12" x="642" y="123">
delete()</text>
<text font-family="Dialog" font-size="12" x="642" y="139">
updateAltitudeAttribute()</text>
<text font-family="Dialog" font-size="12" x="642" y="155">
updateFloweringAttribute()</text>
<text font-family="Dialog" font-size="12" x="642" y="171">
updateFullText()</text>
<text font-family="Dialog" font-size="12" x="642" y="187">
updateNsm()</text>
<line fill="#000000" stroke="#000000" stroke-width="1" x1="365" x2="369" y1="240" y2="240"/>
<line fill="#000000" stroke="#000000" stroke-width="1" x1="374" x2="379" y1="239" y2="238"/>
<line fill="#000000" stroke="#000000" stroke-width="1" x1="384" x2="389" y1="237" y2="237"/>
<line fill="#000000" stroke="#000000" stroke-width="1" x1="394" x2="399" y1="236" y2="235"/>
<line fill="#000000" stroke="#000000" stroke-width="1" x1="404" x2="409" y1="234" y2="234"/>
<line fill="#000000" stroke="#000000" stroke-width="1" x1="414" x2="419" y1="233" y2="232"/>
<line fill="#000000" stroke="#000000" stroke-width="1" x1="424" x2="429" y1="231" y2="231"/>
<line fill="#000000" stroke="#000000" stroke-width="1" x1="434" x2="439" y1="230" y2="229"/>
<line fill="#000000" stroke="#000000" stroke-width="1" x1="444" x2="449" y1="228" y2="228"/>
<line fill="#000000" stroke="#000000" stroke-width="1" x1="454" x2="458" y1="227" y2="226"/>
<line fill="#000000" stroke="#000000" stroke-width="1" x1="463" x2="468" y1="225" y2="225"/>
<line fill="#000000" stroke="#000000" stroke-width="1" x1="473" x2="478" y1="224" y2="223"/>
<line fill="#000000" stroke="#000000" stroke-width="1" x1="483" x2="488" y1="222" y2="221"/>
<line fill="#000000" stroke="#000000" stroke-width="1" x1="493" x2="498" y1="221" y2="220"/>
<line fill="#000000" stroke="#000000" stroke-width="1" x1="503" x2="508" y1="219" y2="218"/>
<line fill="#000000" stroke="#000000" stroke-width="1" x1="513" x2="518" y1="218" y2="217"/>
<line fill="#000000" stroke="#000000" stroke-width="1" x1="523" x2="528" y1="216" y2="215"/>
<line fill="#000000" stroke="#000000" stroke-width="1" x1="533" x2="538" y1="215" y2="214"/>
<line fill="#000000" stroke="#000000" stroke-width="1" x1="543" x2="547" y1="213" y2="212"/>
<line fill="#000000" stroke="#000000" stroke-width="1" x1="552" x2="557" y1="212" y2="211"/>
<line fill="#000000" stroke="#000000" stroke-width="1" x1="562" x2="567" y1="210" y2="209"/>
<line fill="#000000" stroke="#000000" stroke-width="1" x1="572" x2="577" y1="209" y2="208"/>
<line fill="#000000" stroke="#000000" stroke-width="1" x1="582" x2="587" y1="207" y2="206"/>
<line fill="#000000" stroke="#000000" stroke-width="1" x1="592" x2="597" y1="205" y2="205"/>
<line fill="#000000" stroke="#000000" stroke-width="1" x1="602" x2="607" y1="204" y2="203"/>
<line fill="#000000" stroke="#000000" stroke-width="1" x1="612" x2="617" y1="202" y2="202"/>
<line fill="#000000" stroke="#000000" stroke-width="1" x1="622" x2="627" y1="201" y2="200"/>
<line fill="#000000" stroke="#000000" stroke-width="1" x1="632" x2="637" y1="199" y2="199"/>
<line fill="#000000" stroke="#000000" stroke-width="1" x1="627" x2="638" y1="206" y2="198"/>
<line fill="#000000" stroke="#000000" stroke-width="1" x1="625" x2="638" y1="192" y2="198"/>
<text font-family="Dialog" font-size="12" x="451" y="200">
Taxa to TaxaSearch</text>
<rect fill="#ffffff" height="344" stroke="#ffffff" stroke-width="1" width="228" x="1302" y="22"/>
<rect fill="none" height="344" stroke="#000000" stroke-width="1" width="228" x="1302" y="22"/>
<text font-family="Dialog" font-size="12" x="1354" y="35">
florasearch::Search</text>
<rect fill="#000000" height="1" stroke="#000000" stroke-width="1" width="228" x="1302" y="45"/>
<text font-family="Dialog" font-size="12" x="1306" y="59">
db : Integer</text>
<text font-family="Dialog" font-size="12" x="1306" y="75">
request</text>
<text font-family="Dialog" font-size="12" x="1306" y="91">
content : Integer</text>
<text font-family="Dialog" font-size="12" x="1306" y="107">
regionColl : RegionColl</text>
<text font-family="Dialog" font-size="12" x="1306" y="123">
altitude : Integer</text>
<text font-family="Dialog" font-size="12" x="1306" y="139">
flowering : Integer</text>
<text font-family="Dialog" font-size="12" x="1306" y="155">
attributeId : Integer</text>
<rect fill="#000000" height="1" stroke="#000000" stroke-width="1" width="228" x="1302" y="165"/>
<text font-family="Dialog" font-size="12" x="1306" y="179">
__construct(db : Integer)</text>
<text font-family="Dialog" font-size="12" x="1306" y="195">
setRequest(request : Integer)</text>
<text font-family="Dialog" font-size="12" x="1306" y="211">
getTaxaCountAll() : integer</text>
<text font-family="Dialog" font-size="12" x="1306" y="227">
getTaxaColl() : TaxaColl</text>
<text font-family="Dialog" font-size="12" x="1306" y="243">
getTaxaParentColl() : TaxaColl</text>
<text font-family="Dialog" font-size="12" x="1306" y="259">
getRegionColl() : RegionColl</text>
<text font-family="Dialog" font-size="12" x="1306" y="275">
getFilteredRegionColl() : RegionColl</text>
<text font-family="Dialog" font-size="12" x="1306" y="291">
getAltitudeArray()</text>
<text font-family="Dialog" font-size="12" x="1306" y="307">
getFilteredAltitudeArray()</text>
<text font-family="Dialog" font-size="12" x="1306" y="323">
getFloweringArray()</text>
<text font-family="Dialog" font-size="12" x="1306" y="339">
getFilteredFloweringArray()</text>
<text font-family="Dialog" font-size="12" x="1306" y="355">
createSelect()</text>
</svg>
