<?xml version="1.0" encoding="utf-8" ?>
<!DOCTYPE svg PUBLIC "-//W3C//DTD SVG 1.1//EN" "http://www.w3.org/Graphics/SVG/1.1/DTD/svg11.dtd">
<svg height="418" version="1.1" width="694" xmlns="http://www.w3.org/2000/svg">
<text font-family="Dialog" font-size="12" x="18" y="146">
Administrator</text>
<ellipse cx="60" cy="95" fill="#000000" rx="8.0" ry="7.5" stroke="#000000" stroke-width="1"/>
<ellipse cx="60" cy="95" fill="#ffffff" rx="7.0" ry="6.5" stroke="#ffffff" stroke-width="1"/>
<line fill="#000000" stroke="#000000" stroke-width="1" x1="60" x2="60" y1="103" y2="118"/>
<line fill="#000000" stroke="#000000" stroke-width="1" x1="50" x2="70" y1="108" y2="108"/>
<line fill="#000000" stroke="#000000" stroke-width="1" x1="60" x2="55" y1="118" y2="133"/>
<line fill="#000000" stroke="#000000" stroke-width="1" x1="60" x2="65" y1="118" y2="133"/>
<text font-family="Dialog" font-size="12" x="50" y="394">
User</text>
<ellipse cx="65" cy="343" fill="#000000" rx="8.0" ry="7.5" stroke="#000000" stroke-width="1"/>
<ellipse cx="65" cy="343" fill="#ffffff" rx="7.0" ry="6.5" stroke="#ffffff" stroke-width="1"/>
<line fill="#000000" stroke="#000000" stroke-width="1" x1="65" x2="65" y1="351" y2="366"/>
<line fill="#000000" stroke="#000000" stroke-width="1" x1="55" x2="75" y1="356" y2="356"/>
<line fill="#000000" stroke="#000000" stroke-width="1" x1="65" x2="60" y1="366" y2="381"/>
<line fill="#000000" stroke="#000000" stroke-width="1" x1="65" x2="70" y1="366" y2="381"/>
<text font-family="Dialog" font-size="12" x="46" y="274">
Editor</text>
<ellipse cx="65" cy="223" fill="#000000" rx="8.0" ry="7.5" stroke="#000000" stroke-width="1"/>
<ellipse cx="65" cy="223" fill="#ffffff" rx="7.0" ry="6.5" stroke="#ffffff" stroke-width="1"/>
<line fill="#000000" stroke="#000000" stroke-width="1" x1="65" x2="65" y1="231" y2="246"/>
<line fill="#000000" stroke="#000000" stroke-width="1" x1="55" x2="75" y1="236" y2="236"/>
<line fill="#000000" stroke="#000000" stroke-width="1" x1="65" x2="60" y1="246" y2="261"/>
<line fill="#000000" stroke="#000000" stroke-width="1" x1="65" x2="70" y1="246" y2="261"/>
<ellipse cx="283" cy="36" fill="#000000" rx="61.0" ry="22.0" stroke="#000000" stroke-width="1"/>
<ellipse cx="283" cy="36" fill="#ffffff" rx="60.0" ry="21.0" stroke="#ffffff" stroke-width="1"/>
<text font-family="Dialog" font-size="12" x="236" y="37">
Manage region</text>
<polyline fill="none" points="234,49 69,95" stroke="#333399" stroke-width="1"/>
<text font-family="Dialog" font-size="12" x="101" y="52">
Admin to region</text>
<ellipse cx="451" cy="77" fill="#000000" rx="69.0" ry="23.0" stroke="#000000" stroke-width="1"/>
<ellipse cx="451" cy="77" fill="#ffffff" rx="68.0" ry="22.0" stroke="#ffffff" stroke-width="1"/>
<text font-family="Dialog" font-size="12" x="396" y="78">
Manage attribute</text>
<ellipse cx="596" cy="166" fill="#000000" rx="70.0" ry="24.0" stroke="#000000" stroke-width="1"/>
<ellipse cx="596" cy="166" fill="#ffffff" rx="69.0" ry="23.0" stroke="#ffffff" stroke-width="1"/>
<text font-family="Dialog" font-size="12" x="539" y="167">
Manage Taxa Kind</text>
<polyline fill="none" points="383,82 70,108" stroke="#333399" stroke-width="1"/>
<text font-family="Dialog" font-size="12" x="180" y="76">
Admin to attribute</text>
<ellipse cx="623" cy="259" fill="#000000" rx="57.0" ry="21.0" stroke="#000000" stroke-width="1"/>
<ellipse cx="623" cy="259" fill="#ffffff" rx="56.0" ry="20.0" stroke="#ffffff" stroke-width="1"/>
<text font-family="Dialog" font-size="12" x="581" y="260">
Manage Taxa</text>
<polyline fill="none" points="529,158 70,108" stroke="#333399" stroke-width="1"/>
<text font-family="Dialog" font-size="12" x="259" y="115">
Admin to Taxa Kind</text>
<ellipse cx="538" cy="352" fill="#000000" rx="84.0" ry="26.0" stroke="#000000" stroke-width="1"/>
<ellipse cx="538" cy="352" fill="#ffffff" rx="83.0" ry="25.0" stroke="#ffffff" stroke-width="1"/>
<text font-family="Dialog" font-size="12" x="468" y="353">
Manage Dicotomic key</text>
<ellipse cx="343" cy="379" fill="#000000" rx="57.0" ry="21.0" stroke="#000000" stroke-width="1"/>
<ellipse cx="343" cy="379" fill="#ffffff" rx="56.0" ry="20.0" stroke="#ffffff" stroke-width="1"/>
<text font-family="Dialog" font-size="12" x="301" y="380">
Add Attribute</text>
<polyline fill="none" points="461,340 70,284" stroke="#333399" stroke-width="1"/>
<text font-family="Dialog" font-size="12" x="224" y="293">
Editor to Dico</text>
<polyline fill="none" points="301,364 70,284" stroke="#333399" stroke-width="1"/>
<text font-family="Dialog" font-size="12" x="147" y="306">
Editor to add attribute</text>
<polyline fill="none" points="566,256 75,236" stroke="#333399" stroke-width="1"/>
<text font-family="Dialog" font-size="12" x="276" y="228">
Editor to Taxa</text>
<line fill="#000000" stroke="#000000" stroke-width="1" x1="442" x2="441" y1="99" y2="103"/>
<line fill="#000000" stroke="#000000" stroke-width="1" x1="439" x2="437" y1="108" y2="113"/>
<line fill="#000000" stroke="#000000" stroke-width="1" x1="436" x2="434" y1="117" y2="122"/>
<line fill="#000000" stroke="#000000" stroke-width="1" x1="432" x2="431" y1="127" y2="132"/>
<line fill="#000000" stroke="#000000" stroke-width="1" x1="429" x2="427" y1="136" y2="141"/>
<line fill="#000000" stroke="#000000" stroke-width="1" x1="426" x2="424" y1="146" y2="150"/>
<line fill="#000000" stroke="#000000" stroke-width="1" x1="422" x2="421" y1="155" y2="160"/>
<line fill="#000000" stroke="#000000" stroke-width="1" x1="419" x2="417" y1="165" y2="169"/>
<line fill="#000000" stroke="#000000" stroke-width="1" x1="416" x2="414" y1="174" y2="179"/>
<line fill="#000000" stroke="#000000" stroke-width="1" x1="412" x2="411" y1="184" y2="188"/>
<line fill="#000000" stroke="#000000" stroke-width="1" x1="409" x2="407" y1="193" y2="198"/>
<line fill="#000000" stroke="#000000" stroke-width="1" x1="406" x2="404" y1="202" y2="207"/>
<line fill="#000000" stroke="#000000" stroke-width="1" x1="402" x2="401" y1="212" y2="217"/>
<line fill="#000000" stroke="#000000" stroke-width="1" x1="399" x2="397" y1="221" y2="226"/>
<line fill="#000000" stroke="#000000" stroke-width="1" x1="395" x2="394" y1="231" y2="236"/>
<line fill="#000000" stroke="#000000" stroke-width="1" x1="392" x2="390" y1="240" y2="245"/>
<line fill="#000000" stroke="#000000" stroke-width="1" x1="389" x2="387" y1="250" y2="254"/>
<line fill="#000000" stroke="#000000" stroke-width="1" x1="385" x2="384" y1="259" y2="264"/>
<line fill="#000000" stroke="#000000" stroke-width="1" x1="382" x2="380" y1="269" y2="273"/>
<line fill="#000000" stroke="#000000" stroke-width="1" x1="379" x2="377" y1="278" y2="283"/>
<line fill="#000000" stroke="#000000" stroke-width="1" x1="375" x2="374" y1="288" y2="292"/>
<line fill="#000000" stroke="#000000" stroke-width="1" x1="372" x2="370" y1="297" y2="302"/>
<line fill="#000000" stroke="#000000" stroke-width="1" x1="369" x2="367" y1="306" y2="311"/>
<line fill="#000000" stroke="#000000" stroke-width="1" x1="365" x2="364" y1="316" y2="321"/>
<line fill="#000000" stroke="#000000" stroke-width="1" x1="362" x2="360" y1="325" y2="330"/>
<line fill="#000000" stroke="#000000" stroke-width="1" x1="359" x2="357" y1="335" y2="340"/>
<line fill="#000000" stroke="#000000" stroke-width="1" x1="355" x2="354" y1="344" y2="349"/>
<line fill="#000000" stroke="#000000" stroke-width="1" x1="352" x2="350" y1="354" y2="358"/>
<line fill="#000000" stroke="#000000" stroke-width="1" x1="347" x2="350" y1="344" y2="358"/>
<line fill="#000000" stroke="#000000" stroke-width="1" x1="360" x2="350" y1="349" y2="358"/>
<text font-family="Dialog" font-size="12" x="399" y="237">
&lt;&lt;extend&gt;&gt;</text>
<polyline fill="none" points="572,249 65,156" stroke="#000000" stroke-width="1"/>
<text font-family="Dialog" font-size="12" x="277" y="184">
Administrator to Manage Taxa</text>
<polyline fill="none" points="487,331 65,156" stroke="#000000" stroke-width="1"/>
<text font-family="Dialog" font-size="12" x="241" y="223">
Administrator to manage Dicotomy</text>
</svg>
