<?xml version="1.0" encoding="utf-8" ?>
<!DOCTYPE svg PUBLIC "-//W3C//DTD SVG 1.1//EN" "http://www.w3.org/Graphics/SVG/1.1/DTD/svg11.dtd">
<svg height="688" version="1.1" width="900" xmlns="http://www.w3.org/2000/svg">
<text font-family="Dialog" font-size="12" x="18" y="106">
login::user::Administrator</text>
<ellipse cx="60" cy="55" fill="#000000" rx="8.0" ry="7.5" stroke="#000000" stroke-width="1"/>
<ellipse cx="60" cy="55" fill="#ffffff" rx="7.0" ry="6.5" stroke="#ffffff" stroke-width="1"/>
<line fill="#000000" stroke="#000000" stroke-width="1" x1="60" x2="60" y1="63" y2="78"/>
<line fill="#000000" stroke="#000000" stroke-width="1" x1="50" x2="70" y1="68" y2="68"/>
<line fill="#000000" stroke="#000000" stroke-width="1" x1="60" x2="55" y1="78" y2="93"/>
<line fill="#000000" stroke="#000000" stroke-width="1" x1="60" x2="65" y1="78" y2="93"/>
<text font-family="Dialog" font-size="12" x="106" y="258">
login::user::Editor</text>
<ellipse cx="124" cy="207" fill="#000000" rx="8.0" ry="7.5" stroke="#000000" stroke-width="1"/>
<ellipse cx="124" cy="207" fill="#ffffff" rx="7.0" ry="6.5" stroke="#ffffff" stroke-width="1"/>
<line fill="#000000" stroke="#000000" stroke-width="1" x1="124" x2="124" y1="215" y2="230"/>
<line fill="#000000" stroke="#000000" stroke-width="1" x1="114" x2="134" y1="220" y2="220"/>
<line fill="#000000" stroke="#000000" stroke-width="1" x1="124" x2="119" y1="230" y2="245"/>
<line fill="#000000" stroke="#000000" stroke-width="1" x1="124" x2="129" y1="230" y2="245"/>
<text font-family="Dialog" font-size="12" x="68" y="370">
login::user::User</text>
<ellipse cx="83" cy="319" fill="#000000" rx="8.0" ry="7.5" stroke="#000000" stroke-width="1"/>
<ellipse cx="83" cy="319" fill="#ffffff" rx="7.0" ry="6.5" stroke="#ffffff" stroke-width="1"/>
<line fill="#000000" stroke="#000000" stroke-width="1" x1="83" x2="83" y1="327" y2="342"/>
<line fill="#000000" stroke="#000000" stroke-width="1" x1="73" x2="93" y1="332" y2="332"/>
<line fill="#000000" stroke="#000000" stroke-width="1" x1="83" x2="78" y1="342" y2="357"/>
<line fill="#000000" stroke="#000000" stroke-width="1" x1="83" x2="88" y1="342" y2="357"/>
<ellipse cx="462" cy="44" fill="#000000" rx="104.0" ry="30.0" stroke="#000000" stroke-width="1"/>
<ellipse cx="462" cy="44" fill="#ffffff" rx="103.0" ry="29.0" stroke="#ffffff" stroke-width="1"/>
<text font-family="Dialog" font-size="12" x="371" y="45">
flora::region::Manage Region</text>
<ellipse cx="641" cy="142" fill="#000000" rx="147.0" ry="40.0" stroke="#000000" stroke-width="1"/>
<ellipse cx="641" cy="142" fill="#ffffff" rx="146.0" ry="39.0" stroke="#ffffff" stroke-width="1"/>
<text font-family="Dialog" font-size="12" x="505" y="143">
flora::taxa::TaxaAttribute::Manage Attribute</text>
<ellipse cx="717" cy="259" fill="#000000" rx="135.0" ry="37.0" stroke="#000000" stroke-width="1"/>
<ellipse cx="717" cy="259" fill="#ffffff" rx="134.0" ry="36.0" stroke="#ffffff" stroke-width="1"/>
<text font-family="Dialog" font-size="12" x="593" y="260">
flora::taxa::TaxaKind::Manage Taxa Kind</text>
<ellipse cx="730" cy="373" fill="#000000" rx="108.0" ry="31.0" stroke="#000000" stroke-width="1"/>
<ellipse cx="730" cy="373" fill="#ffffff" rx="107.0" ry="30.0" stroke="#ffffff" stroke-width="1"/>
<text font-family="Dialog" font-size="12" x="634" y="374">
flora::taxa::Taxa::Manage Taxa</text>
<ellipse cx="728" cy="480" fill="#000000" rx="158.0" ry="42.0" stroke="#000000" stroke-width="1"/>
<ellipse cx="728" cy="480" fill="#ffffff" rx="157.0" ry="41.0" stroke="#ffffff" stroke-width="1"/>
<text font-family="Dialog" font-size="12" x="581" y="481">
flora::dico::DicoItemColl::Manage dicotomic key</text>
<ellipse cx="549" cy="571" fill="#000000" rx="135.0" ry="37.0" stroke="#000000" stroke-width="1"/>
<ellipse cx="549" cy="571" fill="#ffffff" rx="134.0" ry="36.0" stroke="#ffffff" stroke-width="1"/>
<text font-family="Dialog" font-size="12" x="426" y="572">
flora::taxa::TaxaAttribute::Add Attribute</text>
<polyline fill="none" points="70,68 360,50" stroke="#000000" stroke-width="1"/>
<polyline fill="none" points="70,68 508,124" stroke="#000000" stroke-width="1"/>
<polyline fill="none" points="65,116 611,235" stroke="#000000" stroke-width="1"/>
<ellipse cx="338" cy="174" fill="#000000" rx="0.5" ry="0.5" stroke="#000000" stroke-width="1"/>
<ellipse cx="339" cy="175" fill="#ffffff" rx="-0.5" ry="-0.5" stroke="#ffffff" stroke-width="1"/>
<polyline fill="none" points="65,116 665,348" stroke="#000000" stroke-width="1"/>
<polyline fill="none" points="65,116 659,442" stroke="#000000" stroke-width="1"/>
<polyline fill="none" points="129,268 637,356" stroke="#000000" stroke-width="1"/>
<ellipse cx="382" cy="310" fill="#000000" rx="0.5" ry="0.5" stroke="#000000" stroke-width="1"/>
<ellipse cx="383" cy="311" fill="#ffffff" rx="-0.5" ry="-0.5" stroke="#ffffff" stroke-width="1"/>
<polyline fill="none" points="129,268 633,446" stroke="#000000" stroke-width="1"/>
<polyline fill="none" points="129,268 501,536" stroke="#000000" stroke-width="1"/>
<ellipse cx="430" cy="640" fill="#000000" rx="120.0" ry="34.0" stroke="#000000" stroke-width="1"/>
<ellipse cx="430" cy="640" fill="#ffffff" rx="119.0" ry="33.0" stroke="#ffffff" stroke-width="1"/>
<text font-family="Dialog" font-size="12" x="322" y="641">
contact::contact::manage Contact</text>
<ellipse cx="177" cy="637" fill="#000000" rx="107.0" ry="31.0" stroke="#000000" stroke-width="1"/>
<ellipse cx="177" cy="637" fill="#ffffff" rx="106.0" ry="30.0" stroke="#ffffff" stroke-width="1"/>
<text font-family="Dialog" font-size="12" x="82" y="638">
contact::contact::Add Contact</text>
<polyline fill="none" points="88,380 166,606" stroke="#000000" stroke-width="1"/>
<polyline fill="none" points="65,116 406,606" stroke="#000000" stroke-width="1"/>
</svg>
