<?xml version="1.0" encoding="UTF-8" standalone="no"?>
<svg
   xmlns:dc="http://purl.org/dc/elements/1.1/"
   xmlns:cc="http://creativecommons.org/ns#"
   xmlns:rdf="http://www.w3.org/1999/02/22-rdf-syntax-ns#"
   xmlns:svg="http://www.w3.org/2000/svg"
   xmlns="http://www.w3.org/2000/svg"
   xmlns:sodipodi="http://sodipodi.sourceforge.net/DTD/sodipodi-0.dtd"
   xmlns:inkscape="http://www.inkscape.org/namespaces/inkscape"
   width="110"
   height="22"
   id="svg3410"
   version="1.1"
   inkscape:version="0.91 r13725"
   sodipodi:docname="social.svg">
  <metadata
     id="metadata3428">
    <rdf:RDF>
      <cc:Work
         rdf:about="">
        <dc:format>image/svg+xml</dc:format>
        <dc:type
           rdf:resource="http://purl.org/dc/dcmitype/StillImage" />
        <dc:title></dc:title>
      </cc:Work>
    </rdf:RDF>
  </metadata>
  <defs
     id="defs3426" />
  <sodipodi:namedview
     pagecolor="#ffffff"
     bordercolor="#666666"
     borderopacity="1"
     objecttolerance="10"
     gridtolerance="10"
     guidetolerance="10"
     inkscape:pageopacity="0"
     inkscape:pageshadow="2"
     inkscape:window-width="1680"
     inkscape:window-height="1001"
     id="namedview3424"
     showgrid="true"
     inkscape:zoom="8.943182"
     inkscape:cx="58.922849"
     inkscape:cy="9.5313332"
     inkscape:window-x="0"
     inkscape:window-y="25"
     inkscape:window-maximized="1"
     inkscape:current-layer="layer1" />
  <g
     inkscape:groupmode="layer"
     id="layer2"
     inkscape:label="Sfondo">
    <path
       style="display:inline;fill:#ffffff;fill-opacity:1;stroke:none;stroke-linejoin:miter;stroke-opacity:1"
       d="M 3 0 C 1.338 0 1.9003679e-17 1.338 0 3 L 0 19 C 0 20.662 1.338 22 3 22 L 19 22 C 20.662 22 22 20.662 22 19 L 22 3 C 22 1.338 20.662 1.9003679e-17 19 0 L 3 0 z M 68.814453 0.015625 C 67.402057 0.015625 66.232253 0.98466483 65.910156 2.2949219 C 65.578457 0.99862323 64.416199 0.041015625 63.013672 0.041015625 L 47.013672 0.041015625 C 45.375094 0.041015625 44.056514 1.3432808 44.019531 2.9726562 C 43.982446 1.3433734 42.665855 0.041015625 41.027344 0.041015625 L 25.027344 0.041015625 C 23.365344 0.041015625 22.027344 1.3790156 22.027344 3.0410156 L 22.027344 19.041016 C 22.027344 20.703016 23.365344 22.041016 25.027344 22.041016 L 41.027344 22.041016 C 42.66593 22.041016 43.982562 20.738762 44.019531 19.109375 C 44.056399 20.738854 45.37502 22.041016 47.013672 22.041016 L 63.013672 22.041016 C 64.426068 22.041016 65.595872 21.071976 65.917969 19.761719 C 66.249668 21.058017 67.411926 22.015625 68.814453 22.015625 L 84.814453 22.015625 C 86.476453 22.015625 87.814453 20.677625 87.814453 19.015625 L 87.814453 3.015625 C 87.814453 1.353625 86.476453 0.015625 84.814453 0.015625 L 68.814453 0.015625 z M 90.958984 0.015625 C 89.296984 0.015625 87.958984 1.353625 87.958984 3.015625 L 87.958984 19.015625 C 87.958984 20.677625 89.296984 22.015625 90.958984 22.015625 L 106.95898 22.015625 C 108.62098 22.015625 109.95898 20.677625 109.95898 19.015625 L 109.95898 3.015625 C 109.95898 1.353625 108.62098 0.015625 106.95898 0.015625 L 90.958984 0.015625 z "
       id="rect4173" />
  </g>
  <g
     inkscape:groupmode="layer"
     id="layer1"
     inkscape:label="Lettere"
     style="display:inline">
    <path
       style="fill:#ff2d55;fill-opacity:1;stroke:none"
       d="m 12,10 -3,0 0,4 3,0 0,8 4,0 0,-8 3,0 L 18.98328,10.026836 16,10 C 15.96524,7.0435199 15.98892,7 19,7 l 0,-4 c -5.3101,0.17437 -6.8256,1.68991 -7,7 z"
       id="path3418"
       inkscape:connector-curvature="0"
       sodipodi:nodetypes="ccccccccccccc" />
    <path
       d="m 23.001216,10.204424 c 0.05512,-3.3068675 3.095335,-6.2030259 6.402159,-6.0927023 1.584448,-0.073403 3.073925,0.6160647 4.287476,1.5845091 -0.517913,0.5885379 -1.05423,1.1554486 -1.627372,1.6856568 -1.458735,-1.0082046 -3.533535,-1.2963568 -4.992376,-0.131733 -2.087069,1.4433823 -2.182056,4.8513974 -0.174683,6.4051034 1.952252,1.771513 5.642137,0.891983 6.181565,-1.820449 -1.222813,-0.01835 -2.448756,0 -3.671551,-0.03975 -0.003,-0.729447 -0.0061,-1.458893 -0.003,-2.1881209 2.044146,-0.00633 4.088309,-0.0094 6.135548,0.00612 0.122531,1.7162419 -0.104198,3.5425879 -1.158446,4.9617209 -1.596752,2.24645 -4.802419,2.902275 -7.303221,1.939947 -2.51003,-0.956211 -4.287511,-3.607253 -4.076039,-6.310289"
       style="fill:#ff2d55;fill-opacity:1;fill-rule:nonzero;stroke:none"
       id="path5318"
       inkscape:connector-curvature="0" />
    <path
       d="m 39.526055,7.7650709 c 0.606889,0 1.213551,0 1.823498,0 0.003,0.6097293 0.0061,1.222735 0.01223,1.8324644 0.609947,0.00612 1.222953,0.00612 1.83269,0.01246 0,0.6066707 0,1.2166177 0,1.8232877 -0.609737,0.0063 -1.219684,0.0094 -1.83269,0.01552 -0.0061,0.612788 -0.0093,1.222735 -0.01223,1.832683 -0.609947,0 -1.216609,0 -1.826556,0 -0.0061,-0.609948 -0.0061,-1.219895 -0.01223,-1.829624 -0.609947,-0.0061 -1.222744,-0.01223 -1.83269,-0.01857 0,-0.606671 0,-1.21356 0,-1.8232886 0.609946,-0.00633 1.219684,-0.00938 1.83269,-0.01246 0.003,-0.6127877 0.0093,-1.222735 0.01538,-1.8324644"
       style="fill:#ff2d55;fill-opacity:1;fill-rule:nonzero;stroke:none"
       id="path5320"
       inkscape:connector-curvature="0" />
    <g
       id="g6508"
       transform="matrix(0.02198248,0,0,-0.02198248,40.334313,25.659087)">
      <path
         d="m 455.313,343.75 c 0,-63.125 -51.18,-114.289 -114.29,-114.289 -63.097,0 -114.281,51.164 -114.281,114.289 0,63.125 51.184,114.285 114.281,114.285 63.11,0 114.29,-51.16 114.29,-114.285"
         style="fill:#ff2d55;fill-opacity:1;fill-rule:nonzero;stroke:none"
         id="path6532"
         inkscape:connector-curvature="0" />
      <path
         d="m 226.875,631.875 c 107.102,0 207.742,-41.863 283.398,-117.883 75.766,-76.121 117.493,-177.449 117.493,-285.332 l 165,0 c 0,313.313 -253.86,568.215 -565.891,568.215 l 0,-165"
         style="fill:#ff2d55;fill-opacity:1;fill-rule:nonzero;stroke:none"
         id="path6534"
         inkscape:connector-curvature="0" />
      <path
         d="m 227.117,924.375 c 381.637,0 692.121,-312.18 692.121,-695.887 l 165.002,0 c 0,474.696 -384.506,860.892 -857.123,860.892 l 0,-165.005"
         style="fill:#ff2d55;fill-opacity:1;fill-rule:nonzero;stroke:none"
         id="path6536"
         inkscape:connector-curvature="0" />
    </g>
    <g
       transform="matrix(0.08945349,0,0,-0.08945349,52.710543,41.500509)"
       id="g4203"
       style="fill:#ff2d55;fill-opacity:1">
      <g
         id="g4211"
         style="fill:#ff2d55;fill-opacity:1">
        <g
           id="g4213"
           style="fill:#ff2d55;fill-opacity:1">
          <path
             inkscape:connector-curvature="0"
             id="path4223"
             style="fill:#ff2d55;fill-opacity:1;stroke:none"
             d="m 166.588,448.534 0,-109.489 c 0,-60.466 49.016,-109.483 109.482,-109.483 l 0,0 c 60.466,0 109.484,49.017 109.484,109.483 l 0,0 c 0,60.466 -49.018,109.484 -109.484,109.484 l 0,0 c -0.174,0 -0.347,-0.007 -0.521,-0.007 l 0,0 0,0.012 -108.961,0 z m 109.561,-184.7 c -41.979,0.397 -75.691,34.752 -75.295,76.725 l 0,0 c 0.396,41.978 34.752,75.69 76.729,75.294 l 0,0 c 41.978,-0.397 75.69,-34.752 75.295,-76.729 l 0,0 c -0.394,-41.727 -34.355,-75.291 -75.997,-75.293 l 0,0 c -0.246,0 -0.486,10e-4 -0.732,0.003" />
        </g>
      </g>
    </g>
    <g
       transform="matrix(0.08945349,0,0,-0.08945349,52.710543,41.500509)"
       id="g4181"
       style="fill:#ff2d55;fill-opacity:1">
      <g
         id="g4183"
         style="fill:#ff2d55;fill-opacity:1">
        <g
           id="g4189"
           style="fill:#ff2d55;fill-opacity:1">
          <g
             id="g4191"
             style="fill:#ff2d55;fill-opacity:1">
            <path
               style="fill:#ff2d55;fill-opacity:1;stroke:none"
               d="m 221.17,339.97 c -0.5109,-21.89627 13.36736,-43.14729 33.5302,-51.63384 19.8039,-8.84917 44.54812,-4.5993 60.20479,10.43465 15.8579,14.45637 21.82384,38.46513 14.67467,58.68287 -6.89855,20.95211 -27.26889,36.54607 -49.32652,37.58183 -21.48799,1.59556 -43.09303,-10.70126 -52.82003,-29.90221 -4.04186,-7.73654 -6.19371,-16.43677 -6.26311,-25.1633 z m 55.426,-28.724 c -14.281,-0.20461 -27.24205,12.02806 -27.87237,26.29396 -1.26707,13.98857 9.52272,27.65829 23.40846,29.71068 13.56991,2.60777 28.02887,-6.37644 31.74156,-19.67503 4.2405,-13.09982 -2.81189,-28.49623 -15.47937,-33.87091 -3.69325,-1.66264 -7.74921,-2.50077 -11.79828,-2.4587 z"
               id="path4201"
               inkscape:connector-curvature="0" />
          </g>
        </g>
      </g>
    </g>
    <path
       inkscape:connector-curvature="0"
       id="path30"
       style="fill:#ff2d55;fill-opacity:1;fill-rule:nonzero;stroke:none"
       d="m 103.19418,10.480734 c 0.70306,0.460558 4.07495,2.592003 2.44203,6.826354 -1.01854,2.641642 -4.04416,3.999826 -7.883525,3.71911 -2.635138,-0.192717 -5.682656,-2.239616 -5.682656,-4.353141 0,-0.692962 0.02097,-2.045571 1.753573,-2.640847 1.017478,-0.349466 3.338984,0.316684 2.789234,3.274878 -0.102605,0.552405 4.987444,1.37358 5.515684,-1.267665 0.55055,-2.754061 -5.283016,-4.078664 -5.283016,-4.078664 -0.3131,-0.105641 -4.057295,-0.903067 -4.057295,-5.1452496 0,-5.5694412 6.293726,-5.81962994 7.931831,-5.6177531 4.8867,0.6020424 6.86855,5.8076841 3.20188,6.6169132 -2.1004,0.4636117 -3.1829,-1.5002022 -2.70841,-3.0112841 0.17123,-0.5447079 -1.726363,-0.7034475 -2.666063,-0.4117163 -0.849578,0.2637256 -1.889351,1.1873655 -1.889351,2.2497039 0,1.3678735 3.251518,2.4245033 3.251518,2.4245033 0,0 2.590156,0.9598727 3.284566,1.4148577" />
  </g>
</svg>
