<?xml version="1.0" encoding="UTF-8" standalone="no"?>
<svg id="svg3410" xmlns:rdf="http://www.w3.org/1999/02/22-rdf-syntax-ns#" xmlns="http://www.w3.org/2000/svg" height="22" width="110" version="1.1" xmlns:cc="http://creativecommons.org/ns#" xmlns:dc="http://purl.org/dc/elements/1.1/">
 <g id="layer2">
  <path id="rect4173" d="m3 0c-1.662 0-3 1.338-3 3v16c0 1.662 1.338 3 3 3h16c1.662 0 3-1.338 3-3v-16c0-1.662-1.338-3-3-3h-16zm65.814 0.015625c-1.412 0-2.582 0.96904-2.904 2.2793-0.332-1.2963-1.494-2.2539-2.896-2.2539l-16 0.000016c-1.639 0-2.957 1.3023-2.994 2.9317-0.038-1.6293-1.354-2.9317-2.993-2.9317l-16 0.000016c-1.662 0-3 1.338-3 3v16c0 1.662 1.338 3 3 3h16c1.639 0 2.956-1.302 2.993-2.932 0.036 1.63 1.355 2.932 2.994 2.932h16c1.412 0 2.582-0.969 2.904-2.279 0.332 1.296 1.494 2.254 2.896 2.254h16c1.662 0 3-1.338 3-3v-16c0-1.6624-1.338-3.0004-3-3.0004l-16 0.000025zm22.145 0c-1.662 0-3 1.338-3 3v16c0 1.662 1.338 3 3 3h16.001c1.66 0 3-1.338 3-3v-16c0-1.6624-1.34-3.0004-3-3.0004l-16.001 0.000025z" fill="#fff"/>
 </g>
 <g id="layer1" fill="#ff2d55">
  <path id="path3418" d="m12 10h-3v4h3v8h4v-8h3l-0.017-3.973-2.983-0.027c-0.035-2.9565-0.011-3 3-3v-4c-5.3101 0.17437-6.8256 1.6899-7 7z"/>
  <path id="path5318" d="m23.001 10.204c0.05512-3.3069 3.0953-6.203 6.4022-6.0927 1.5844-0.073403 3.0739 0.61606 4.2875 1.5845-0.51791 0.58854-1.0542 1.1554-1.6274 1.6857-1.4587-1.0082-3.5335-1.2964-4.9924-0.13173-2.0871 1.4434-2.1821 4.8514-0.17468 6.4051 1.9523 1.7715 5.6421 0.89198 6.1816-1.8204-1.2228-0.01835-2.4488 0-3.6716-0.03975-0.003-0.72945-0.0061-1.4589-0.003-2.1881 2.0441-0.00633 4.0883-0.0094 6.1355 0.00612 0.12253 1.7162-0.1042 3.5426-1.1584 4.9617-1.5968 2.2464-4.8024 2.9023-7.3032 1.9399-2.51-0.95621-4.2875-3.6073-4.076-6.3103"/>
  <path id="path5320" d="m39.526 7.7651h1.8235c0.003 0.60973 0.0061 1.2227 0.01223 1.8325 0.60995 0.00612 1.223 0.00612 1.8327 0.01246v1.8233c-0.60974 0.0063-1.2197 0.0094-1.8327 0.01552-0.0061 0.61279-0.0093 1.2227-0.01223 1.8327h-1.8266c-0.0061-0.60995-0.0061-1.2199-0.01223-1.8296-0.60995-0.0061-1.2227-0.01223-1.8327-0.01857v-1.8233c0.60995-0.00633 1.2197-0.00938 1.8327-0.01246 0.003-0.61279 0.0093-1.2227 0.01538-1.8325"/>
  <g id="g6508" transform="matrix(.021982 0 0 -.021982 40.334 25.659)">
   <path id="path6532" d="m455.31 343.75c0-63.125-51.18-114.29-114.29-114.29-63.097 0-114.28 51.164-114.28 114.29 0 63.125 51.184 114.28 114.28 114.28 63.11 0 114.29-51.16 114.29-114.28"/>
   <path id="path6534" d="m226.88 631.88c107.1 0 207.74-41.863 283.4-117.88 75.766-76.121 117.49-177.45 117.49-285.33h165c0 313.31-253.86 568.22-565.89 568.22v-165"/>
   <path id="path6536" d="m227.12 924.38c381.64 0 692.12-312.18 692.12-695.89h165c0 474.7-384.51 860.89-857.12 860.89v-165"/>
  </g>
  <g id="g4203" transform="matrix(.089453 0 0 -.089453 52.711 41.501)">
   <g id="g4211" fill="#ff2d55">
    <g id="g4213" fill="#ff2d55">
     <path id="path4223" d="m166.59 448.53v-109.49c0-60.466 49.016-109.48 109.48-109.48 60.466 0 109.48 49.017 109.48 109.48 0 60.466-49.018 109.48-109.48 109.48-0.174 0-0.347-0.007-0.521-0.007v0.012h-108.96zm109.56-184.7c-41.979 0.397-75.691 34.752-75.295 76.725 0.396 41.978 34.752 75.69 76.729 75.294 41.978-0.397 75.69-34.752 75.295-76.729-0.394-41.727-34.355-75.291-75.997-75.293-0.246 0-0.486 0.001-0.732 0.003" fill="#ff2d55"/>
    </g>
   </g>
  </g>
  <g id="g4181" transform="matrix(.089453 0 0 -.089453 52.711 41.501)">
   <g id="g4183" fill="#ff2d55">
    <g id="g4189" fill="#ff2d55">
     <g id="g4191" fill="#ff2d55">
      <path id="path4201" fill="#ff2d55" d="m221.17 339.97c-0.5109-21.896 13.367-43.147 33.53-51.634 19.804-8.8492 44.548-4.5993 60.205 10.435 15.858 14.456 21.824 38.465 14.675 58.683-6.8986 20.952-27.269 36.546-49.327 37.582-21.488 1.5956-43.093-10.701-52.82-29.902-4.0419-7.7365-6.1937-16.437-6.2631-25.163zm55.426-28.724c-14.281-0.20461-27.242 12.028-27.872 26.294-1.2671 13.989 9.5227 27.658 23.408 29.711 13.57 2.6078 28.029-6.3764 31.742-19.675 4.2405-13.1-2.8119-28.496-15.479-33.871-3.6932-1.6626-7.7492-2.5008-11.798-2.4587z"/>
     </g>
    </g>
   </g>
  </g>
  <path id="path30" d="m103.19 10.481c0.70306 0.46056 4.075 2.592 2.442 6.8264-1.0185 2.6416-4.0442 3.9998-7.8835 3.7191-2.6351-0.19272-5.6827-2.2396-5.6827-4.3531 0-0.69296 0.02097-2.0456 1.7536-2.6408 1.0175-0.34947 3.339 0.31668 2.7892 3.2749-0.1026 0.5524 4.9874 1.3736 5.5157-1.2677 0.55055-2.7541-5.283-4.0787-5.283-4.0787-0.3131-0.10564-4.0573-0.90307-4.0573-5.1452 0-5.5694 6.2937-5.8196 7.9318-5.6178 4.8867 0.60204 6.8686 5.8077 3.2019 6.6169-2.1004 0.46361-3.1829-1.5002-2.7084-3.0113 0.17123-0.54471-1.7264-0.70345-2.6661-0.41172-0.84958 0.26373-1.8894 1.1874-1.8894 2.2497 0 1.3679 3.2515 2.4245 3.2515 2.4245s2.5902 0.95987 3.2846 1.4149"/>
 </g>
</svg>
