<?xml version="1.0" encoding="UTF-8" standalone="no"?>
<svg
   xmlns:dc="http://purl.org/dc/elements/1.1/"
   xmlns:cc="http://creativecommons.org/ns#"
   xmlns:rdf="http://www.w3.org/1999/02/22-rdf-syntax-ns#"
   xmlns:svg="http://www.w3.org/2000/svg"
   xmlns="http://www.w3.org/2000/svg"
   xmlns:sodipodi="http://sodipodi.sourceforge.net/DTD/sodipodi-0.dtd"
   xmlns:inkscape="http://www.inkscape.org/namespaces/inkscape"
   id="svg5884"
   height="70"
   width="60"
   version="1.1"
   viewBox="0 0 60.000001 70.000001"
   inkscape:version="0.91 r13725"
   sodipodi:docname="logo.svg">
  <metadata
     id="metadata9">
    <rdf:RDF>
      <cc:Work
         rdf:about="">
        <dc:format>image/svg+xml</dc:format>
        <dc:type
           rdf:resource="http://purl.org/dc/dcmitype/StillImage" />
      </cc:Work>
    </rdf:RDF>
  </metadata>
  <defs
     id="defs7" />
  <sodipodi:namedview
     pagecolor="#ffffff"
     bordercolor="#666666"
     borderopacity="1"
     objecttolerance="10"
     gridtolerance="10"
     guidetolerance="10"
     inkscape:pageopacity="0"
     inkscape:pageshadow="2"
     inkscape:window-width="1680"
     inkscape:window-height="1001"
     id="namedview5"
     showgrid="false"
     inkscape:zoom="3.3714286"
     inkscape:cx="30.59322"
     inkscape:cy="35"
     inkscape:window-x="0"
     inkscape:window-y="25"
     inkscape:window-maximized="1"
     inkscape:current-layer="layer1" />
  <g
     id="layer1"
     transform="translate(0 -982.36)">
    <path
       id="path10"
       d="m24.337 999.74 1-12c-5.9419 4.8466-11.312 11.373-11.867 19.337-0.55727 6.5427 0.75135 13.25-1.133 19.663-3.0962-3.5041-4.525-8.0886-7-12 0 0 4.5146 16.959 3.9375 20.732-0.75895 4.9618-2.9375 16.268-2.9375 16.268 2.6026-4.3524 5.5385-9.3798 7.8079-13.057 5.1317-4.4521 12.128-7.2953 18.192-10.943-3.9969-0.6829-8.0658-2.7074-9.7938-6.5863 0.86215-1.0013 4.5637-0.4069 6.5059-1.0406 5.5466-0.8244 11.528-3.1442 14.288-8.3731-4.1345 0.042-8.9487-0.8136-11.244-4.6778-1.9511-2.5746 3.7958-0.9691 5.3897-1.7979 5.2427-0.7156 11.371-1.8633 14.318-6.7708 2.9227-4.4376 1.1274-10.836-3.3874-13.459-3.8683-2.4751-9.7011-2.4493-12.698 1.4005-3.9075 4.2869-5.4098 11.227-11.379 13.305z"
       fill="#b51d38"
       style="fill:#207823;fill-opacity:1" />
  </g>
</svg>
