<?xml version="1.0" encoding="UTF-8" standalone="no"?>
<svg
   xmlns:dc="http://purl.org/dc/elements/1.1/"
   xmlns:cc="http://creativecommons.org/ns#"
   xmlns:rdf="http://www.w3.org/1999/02/22-rdf-syntax-ns#"
   xmlns:svg="http://www.w3.org/2000/svg"
   xmlns="http://www.w3.org/2000/svg"
   xmlns:sodipodi="http://sodipodi.sourceforge.net/DTD/sodipodi-0.dtd"
   xmlns:inkscape="http://www.inkscape.org/namespaces/inkscape"
   id="svg3410"
   height="22"
   width="176"
   version="1.1"
   sodipodi:docname="social.svg"
   inkscape:version="0.92.1 r15371">
  <metadata
     id="metadata4597">
    <rdf:RDF>
      <cc:Work
         rdf:about="">
        <dc:format>image/svg+xml</dc:format>
        <dc:type
           rdf:resource="http://purl.org/dc/dcmitype/StillImage" />
        <dc:title></dc:title>
      </cc:Work>
    </rdf:RDF>
  </metadata>
  <defs
     id="defs4595" />
  <sodipodi:namedview
     pagecolor="#ffffff"
     bordercolor="#666666"
     borderopacity="1"
     objecttolerance="10"
     gridtolerance="10"
     guidetolerance="10"
     inkscape:pageopacity="0"
     inkscape:pageshadow="2"
     inkscape:window-width="1920"
     inkscape:window-height="1031"
     id="namedview4593"
     showgrid="false"
     inkscape:zoom="12.381818"
     inkscape:cx="166.4215"
     inkscape:cy="12.156356"
     inkscape:window-x="0"
     inkscape:window-y="25"
     inkscape:window-maximized="1"
     inkscape:current-layer="svg3410" />
  <rect
     style="fill:#ffffff;fill-opacity:1;fill-rule:nonzero;stroke:none;stroke-width:1.00379944;stroke-linejoin:miter;stroke-opacity:1"
     id="rect5202-3-6"
     width="21.967695"
     height="21.967695"
     x="153.93539"
     y="0.11306953"
     ry="3.6343613" />
  <rect
     style="fill:#ffffff;fill-opacity:1;fill-rule:nonzero;stroke:none;stroke-width:1.00379944;stroke-linejoin:miter;stroke-opacity:1"
     id="rect5202-3"
     width="21.967695"
     height="21.967695"
     x="131.9677"
     y="0.11307001"
     ry="3.6343613" />
  <rect
     style="fill:#ffffff;fill-opacity:1;fill-rule:nonzero;stroke:none;stroke-width:1.00379944;stroke-linejoin:miter;stroke-opacity:1"
     id="rect5202"
     width="21.967695"
     height="21.967695"
     x="110"
     y="0.11306879"
     ry="3.6343613" />
  <g
     id="layer2">
    <path
       id="rect4173"
       d="M 3,0 C 1.338,0 0,1.338 0,3 v 16 c 0,1.662 1.338,3 3,3 h 16 c 1.662,0 3,-1.338 3,-3 V 3 C 22,1.338 20.662,0 19,0 Z m 65.814,0.015625 c -1.412,0 -2.582,0.96904 -2.904,2.2793 -0.332,-1.2963 -1.494,-2.2539 -2.896,-2.2539 l -16,1.6e-5 c -1.639,0 -2.957,1.3023 -2.994,2.9317 -0.038,-1.6293 -1.354,-2.9317 -2.993,-2.9317 l -16,1.6e-5 c -1.662,0 -3,1.338 -3,3 v 16 c 0,1.662 1.338,3 3,3 h 16 c 1.639,0 2.956,-1.302 2.993,-2.932 0.036,1.63 1.355,2.932 2.994,2.932 h 16 c 1.412,0 2.582,-0.969 2.904,-2.279 0.332,1.296 1.494,2.254 2.896,2.254 h 16 c 1.662,0 3,-1.338 3,-3 v -16 c 0,-1.6624 -1.338,-3.0004 -3,-3.0004 l -16,2.5e-5 z m 22.145,0 c -1.662,0 -3,1.338 -3,3 v 16 c 0,1.662 1.338,3 3,3 h 16.001 c 1.66,0 3,-1.338 3,-3 v -16 c 0,-1.6624 -1.34,-3.0004 -3,-3.0004 l -16.001,2.5e-5 z"
       inkscape:connector-curvature="0"
       style="fill:#ffffff" />
  </g>
  <g
     id="layer1"
     style="fill:#207823;fill-opacity:1">
    <path
       id="path3418"
       d="M 12,10 H 9 v 4 h 3 v 8 h 4 v -8 h 3 L 18.983,10.027 16,10 C 15.965,7.0435 15.989,7 19,7 V 3 c -5.3101,0.17437 -6.8256,1.6899 -7,7 z"
       inkscape:connector-curvature="0"
       style="fill:#207823;fill-opacity:1" />
    <path
       id="path5318"
       d="m 23.001,10.204 c 0.05512,-3.3069 3.0953,-6.203 6.4022,-6.0927 1.5844,-0.073403 3.0739,0.61606 4.2875,1.5845 -0.51791,0.58854 -1.0542,1.1554 -1.6274,1.6857 -1.4587,-1.0082 -3.5335,-1.2964 -4.9924,-0.13173 -2.0871,1.4434 -2.1821,4.8514 -0.17468,6.4051 1.9523,1.7715 5.6421,0.89198 6.1816,-1.8204 -1.2228,-0.01835 -2.4488,0 -3.6716,-0.03975 -0.003,-0.72945 -0.0061,-1.4589 -0.003,-2.1881 2.0441,-0.00633 4.0883,-0.0094 6.1355,0.00612 0.12253,1.7162 -0.1042,3.5426 -1.1584,4.9617 -1.5968,2.2464 -4.8024,2.9023 -7.3032,1.9399 -2.51,-0.95621 -4.2875,-3.6073 -4.076,-6.3103"
       inkscape:connector-curvature="0"
       style="fill:#207823;fill-opacity:1" />
    <path
       id="path5320"
       d="m 39.526,7.7651 h 1.8235 c 0.003,0.60973 0.0061,1.2227 0.01223,1.8325 0.60995,0.00612 1.223,0.00612 1.8327,0.01246 v 1.8233 c -0.60974,0.0063 -1.2197,0.0094 -1.8327,0.01552 -0.0061,0.61279 -0.0093,1.2227 -0.01223,1.8327 h -1.8266 c -0.0061,-0.60995 -0.0061,-1.2199 -0.01223,-1.8296 -0.60995,-0.0061 -1.2227,-0.01223 -1.8327,-0.01857 v -1.8233 c 0.60995,-0.00633 1.2197,-0.00938 1.8327,-0.01246 0.003,-0.61279 0.0093,-1.2227 0.01538,-1.8325"
       inkscape:connector-curvature="0"
       style="fill:#207823;fill-opacity:1" />
    <g
       id="g6508"
       transform="matrix(0.021982,0,0,-0.021982,40.334,25.659)"
       style="fill:#207823;fill-opacity:1">
      <path
         id="path6532"
         d="m 455.31,343.75 c 0,-63.125 -51.18,-114.29 -114.29,-114.29 -63.097,0 -114.28,51.164 -114.28,114.29 0,63.125 51.184,114.28 114.28,114.28 63.11,0 114.29,-51.16 114.29,-114.28"
         inkscape:connector-curvature="0"
         style="fill:#207823;fill-opacity:1" />
      <path
         id="path6534"
         d="m 226.88,631.88 c 107.1,0 207.74,-41.863 283.4,-117.88 75.766,-76.121 117.49,-177.45 117.49,-285.33 h 165 c 0,313.31 -253.86,568.22 -565.89,568.22 v -165"
         inkscape:connector-curvature="0"
         style="fill:#207823;fill-opacity:1" />
      <path
         id="path6536"
         d="m 227.12,924.38 c 381.64,0 692.12,-312.18 692.12,-695.89 h 165 c 0,474.7 -384.51,860.89 -857.12,860.89 v -165"
         inkscape:connector-curvature="0"
         style="fill:#207823;fill-opacity:1" />
    </g>
    <g
       id="g4203"
       transform="matrix(0.089453,0,0,-0.089453,52.711,41.501)"
       style="fill:#207823;fill-opacity:1">
      <g
         id="g4211"
         style="fill:#207823;fill-opacity:1">
        <g
           id="g4213"
           style="fill:#207823;fill-opacity:1">
          <path
             id="path4223"
             d="M 166.59,448.53 V 339.04 c 0,-60.466 49.016,-109.48 109.48,-109.48 60.466,0 109.48,49.017 109.48,109.48 0,60.466 -49.018,109.48 -109.48,109.48 -0.174,0 -0.347,-0.007 -0.521,-0.007 v 0.012 h -108.96 z m 109.56,-184.7 c -41.979,0.397 -75.691,34.752 -75.295,76.725 0.396,41.978 34.752,75.69 76.729,75.294 41.978,-0.397 75.69,-34.752 75.295,-76.729 -0.394,-41.727 -34.355,-75.291 -75.997,-75.293 -0.246,0 -0.486,10e-4 -0.732,0.003"
             inkscape:connector-curvature="0"
             style="fill:#207823;fill-opacity:1" />
        </g>
      </g>
    </g>
    <g
       id="g4181"
       transform="matrix(0.089453,0,0,-0.089453,52.711,41.501)"
       style="fill:#207823;fill-opacity:1">
      <g
         id="g4183"
         style="fill:#207823;fill-opacity:1">
        <g
           id="g4189"
           style="fill:#207823;fill-opacity:1">
          <g
             id="g4191"
             style="fill:#207823;fill-opacity:1">
            <path
               id="path4201"
               d="m 221.17,339.97 c -0.5109,-21.896 13.367,-43.147 33.53,-51.634 19.804,-8.8492 44.548,-4.5993 60.205,10.435 15.858,14.456 21.824,38.465 14.675,58.683 -6.8986,20.952 -27.269,36.546 -49.327,37.582 -21.488,1.5956 -43.093,-10.701 -52.82,-29.902 -4.0419,-7.7365 -6.1937,-16.437 -6.2631,-25.163 z m 55.426,-28.724 c -14.281,-0.20461 -27.242,12.028 -27.872,26.294 -1.2671,13.989 9.5227,27.658 23.408,29.711 13.57,2.6078 28.029,-6.3764 31.742,-19.675 4.2405,-13.1 -2.8119,-28.496 -15.479,-33.871 -3.6932,-1.6626 -7.7492,-2.5008 -11.798,-2.4587 z"
               inkscape:connector-curvature="0"
               style="fill:#207823;fill-opacity:1" />
          </g>
        </g>
      </g>
    </g>
    <path
       id="path30"
       d="m 103.19,10.481 c 0.70306,0.46056 4.075,2.592 2.442,6.8264 -1.0185,2.6416 -4.0442,3.9998 -7.8835,3.7191 -2.6351,-0.19272 -5.6827,-2.2396 -5.6827,-4.3531 0,-0.69296 0.02097,-2.0456 1.7536,-2.6408 1.0175,-0.34947 3.339,0.31668 2.7892,3.2749 -0.1026,0.5524 4.9874,1.3736 5.5157,-1.2677 0.55055,-2.7541 -5.283,-4.0787 -5.283,-4.0787 -0.3131,-0.10564 -4.0573,-0.90307 -4.0573,-5.1452 0,-5.5694 6.2937,-5.8196 7.9318,-5.6178 4.8867,0.60204 6.8686,5.8077 3.2019,6.6169 -2.1004,0.46361 -3.1829,-1.5002 -2.7084,-3.0113 0.17123,-0.54471 -1.7264,-0.70345 -2.6661,-0.41172 -0.84958,0.26373 -1.8894,1.1874 -1.8894,2.2497 0,1.3679 3.2515,2.4245 3.2515,2.4245 0,0 2.5902,0.95987 3.2846,1.4149"
       inkscape:connector-curvature="0"
       style="fill:#207823;fill-opacity:1" />
  </g>
  <path
     style="fill:#207823;fill-opacity:1;fill-rule:nonzero;stroke-width:0.04893859"
     d="m 112.83564,20.847007 c -0.11397,-0.08082 -0.26816,-0.250269 -0.34259,-0.377079 l -0.13538,-0.230351 v -9.420684 c 0,-8.8038162 0.006,-9.4307015 0.0838,-9.5738774 0.13366,-0.2439186 0.33346,-0.45853808 0.42714,-0.45853808 0.0474,0 0.38103,0.30280548 0.74125,0.67289788 0.3602,0.3701212 2.62624,2.6734921 5.03563,5.1186244 2.40942,2.4451613 4.38684,4.4822422 4.39428,4.5268402 0.0202,0.114888 -9.76857,9.894031 -9.8997,9.891087 -0.0535,-0.0011 -0.19053,-0.06813 -0.30446,-0.148945 z"
     id="path5333"
     inkscape:connector-curvature="0" />
  <path
     style="fill:#207823;fill-opacity:1;fill-rule:nonzero;stroke-width:0.04893859"
     d="m 114.36878,20.693093 c 0.0785,-0.09209 0.0794,-0.09872 0.006,-0.04186 -0.0477,0.03695 -0.0972,0.05687 -0.11021,0.04388 -0.0291,-0.02915 9.11863,-9.112279 9.19623,-9.1311 0.0744,-0.01732 2.64461,2.5595 2.66127,2.669047 0.0109,0.06639 -1.03136,0.65705 -4.74703,2.691908 -2.61802,1.433723 -5.27657,2.892703 -5.90797,3.242184 -0.63136,0.349483 -1.15783,0.635401 -1.16986,0.635401 -0.0109,0 0.0202,-0.04907 0.0713,-0.109114 z"
     id="path5329"
     inkscape:connector-curvature="0" />
  <path
     style="fill:#207823;fill-opacity:1;fill-rule:nonzero;stroke-width:0.04893859"
     d="m 125.66821,13.057834 c -0.5113,-0.518146 -1.13844,-1.156953 -1.39366,-1.419577 l -0.46402,-0.477474 1.5896,-1.5901762 c 0.87427,-0.8745852 1.61373,-1.5901472 1.64323,-1.5901472 0.0294,0 0.89952,0.4732021 1.93337,1.0515923 1.9984,1.1180131 2.19262,1.2572051 2.29748,1.6467251 0.0289,0.104784 0.0367,0.26932 0.0173,0.365473 -0.0413,0.220826 -0.2849,0.542943 -0.5363,0.709645 -0.30075,0.199465 -4.0388,2.246014 -4.10222,2.246014 -0.031,0 -0.47468,-0.423928 -0.98595,-0.942075 z"
     id="path5325"
     inkscape:connector-curvature="0" />
  <path
     style="fill:#207823;fill-opacity:1;fill-rule:nonzero;stroke-width:0.04893859"
     d="m 121.16652,8.4820659 c -1.23579,-1.2583313 -3.4646,-3.5242051 -4.95285,-5.0352881 -1.48828,-1.5110828 -2.70597,-2.78569463 -2.70597,-2.83245773 0,-0.23121751 0.41959,-0.0115461 6.6248,3.46485643 3.42135,1.9169115 6.26371,3.5281597 6.31633,3.580523 0.0951,0.094391 0.0828,0.1079589 -1.43766,1.6027328 -0.84333,0.8291497 -1.54783,1.5075327 -1.56553,1.5075327 -0.0173,0 -1.04332,-1.0295678 -2.27912,-2.2878991 z"
     id="path5321"
     inkscape:connector-curvature="0" />
  <path
     inkscape:connector-curvature="0"
     style="fill:#207823;fill-opacity:1;stroke-width:0.12714417"
     d="m 147.53468,19.780923 c -2.76221,-0.406867 -5.03649,-0.7439 -5.05397,-0.748937 -0.0175,-0.0046 -0.0318,-1.811457 -0.0318,-4.014221 v -4.005046 h 5.27647 5.27648 v 4.7679 c 0,4.461413 -0.0139,4.767016 -0.22248,4.753982 -0.12244,-0.0077 -2.48251,-0.346812 -5.24471,-0.753678 z"
     id="path6009" />
  <path
     inkscape:connector-curvature="0"
     style="fill:#207823;fill-opacity:1;stroke:none;stroke-width:0.12714417"
     d="m 137.58566,18.414643 -4.03683,-0.576538 v -3.412701 -3.412685 h 4.06862 4.0686 v 4.005046 c 0,2.202764 -0.0139,3.997918 -0.0318,3.989223 -0.0175,-0.0093 -1.84836,-0.275243 -4.0686,-0.592345 z"
     id="path6005" />
  <path
     inkscape:connector-curvature="0"
     style="fill:#207823;fill-opacity:1;stroke-width:0.12714417"
     d="M 133.54883,6.9465177 V 3.7703459 l 0.28608,-0.059357 c 0.32175,-0.066796 7.6073,-1.0908511 7.75578,-1.0902156 0.0524,1.859e-4 0.0953,1.6882488 0.0953,3.7511596 V 10.12269 h -4.0686 -4.06862 z"
     id="path5997" />
  <path
     inkscape:connector-curvature="0"
     style="fill:#207823;fill-opacity:1;stroke-width:0.12714417"
     d="m 142.44892,6.308376 c 0,-2.964486 0.0353,-3.8152435 0.15893,-3.8184826 0.0874,-0.00155 2.46183,-0.3355296 5.27648,-0.7405364 l 5.11756,-0.7363985 v 4.554881 4.5548655 h -5.27649 -5.27648 z"
     id="path5993" />
  <path
     style="fill:#207823;stroke-width:0.06068189;fill-opacity:1"
     d="m 160.16936,21.06601 c 0.85014,-0.317848 1.66933,-0.602829 1.85335,-1.606205 0.16762,-0.644762 1.7036,-1.881388 0.32814,-2.010261 -0.49613,-0.73491 -2.00175,-1.123953 -1.33888,-2.243457 0.10119,-1.367342 1.3704,0.09493 2.02331,0.300924 0.10172,0.243891 -0.23005,0.619691 -0.29522,0.914363 -0.1049,0.654568 1.18438,0.920975 1.42964,0.231759 0.0531,-0.702664 0.94123,-1.176318 1.03649,-1.698718 -1.01378,0.164708 -1.23953,-0.842741 -1.8631,-1.394163 0.16711,-0.687292 0.83387,-1.856257 1.74157,-1.386258 1.22912,0.208869 0.71974,1.640233 1.30405,2.316897 1.01827,0.317102 1.48639,1.296843 1.70926,2.263157 0.217,0.300054 0.18331,1.637809 0.41031,1.462203 0.1974,-0.912642 0.93696,-1.582692 1.04987,-2.537669 0.21991,-1.074081 0.43852,-2.159139 0.57818,-3.241509 -0.14327,-1.293412 0.0227,-2.6184288 -0.21724,-3.8958922 -0.74896,-0.5660071 -1.57083,-1.0996587 -2.21531,-1.8065078 -0.69793,-0.3693438 -0.97679,-2.0199014 -1.85394,-1.2214147 -0.51757,0.2948044 -0.84852,-0.7463299 -1.10144,0.1633313 -0.0884,0.8303825 -1.05024,1.1548318 -1.35717,0.5735134 -0.75743,0.1056886 -1.22138,1.888376 -1.85019,1.0881982 0.0974,-0.6602478 -0.38566,-0.8843833 -0.91448,-0.5705895 0.0459,-0.6020347 -0.69456,-0.2390046 -0.43939,-1.0210197 -0.36128,-0.2776804 -0.52824,-0.6007126 -0.24951,-1.0533866 -0.35685,-0.2399099 -0.67084,-0.4530926 -0.65467,0.041106 -0.0796,-0.7792108 -1.18607,-0.1707734 -1.18243,-0.6833006 -0.14211,0.5099018 -0.80598,0.573675 -0.91634,1.0307565 -0.60373,-0.2662601 -0.46501,-1.557577 -1.39141,-0.752643 -0.61818,0.2499444 -0.0904,-1.7020548 -0.37698,-1.6534371 -0.0257,0.3787082 -0.0959,1.1646349 -0.0938,0.2929956 0.18246,-0.5422462 -0.4464,-1.9034184 0.38652,-1.8064619 6.42252,-0.024849 12.84506,-0.049701 19.26758,-0.074551 -0.0507,1.7898456 -0.10144,3.5796917 -0.15215,5.3695374 -0.37797,0.740007 -1.11153,0.8078764 -1.70323,1.192806 -0.28285,0.2310793 -0.0331,0.6600777 -0.0757,0.980467 0.17565,1.9256527 -0.10196,3.8964057 0.35151,5.7910377 0.0208,0.881316 1.16962,0.990308 1.42742,1.532502 0,1.764644 0,3.529291 0,5.293935 -4.94303,0 -9.88605,0 -14.82908,0 0.0582,-0.06068 0.11632,-0.121363 0.17448,-0.182045 z"
     id="path6812"
     inkscape:connector-curvature="0" />
</svg>
